<svg xmlns="http://www.w3.org/2000/svg" viewBox="0 0 1300.02 1009.74"><defs><style>.cls-1{fill:#31e981;}.cls-2{fill:#00120b;}.cls-3{fill:#d8e4ff;}</style></defs><title>404</title><g id="Livello_2" data-name="Livello 2"><g id="Livello_1-2" data-name="Livello 1"><path class="cls-1" d="M615.29,5C513.46,12.22,207.6,55.33,89.52,275c-35,65.1-147.5,274.37-51.84,475.2,115.91,243.33,434.46,258.2,466.56,259.2,138.5,4.34,367.6-27.12,432-164.16,32.66-69.49-1.53-113.19,43.2-172.8,66.71-88.89,179.18-40.25,259.2-112.32,91-81.94,69.86-269.05,7.59-376C1122.87-27.71,720.58-2.54,615.29,5Z"/><path class="cls-2" d="M970.8,603.28c96-84.09,198.48-40.28,250.56-112.32s11.67-204.57-43.2-285.12c-101.53-149-721-258.58-967.68,34.56-102.7,122-183.34,336.63-95,501.12,138.19,257.44,613,248.43,743,86.4C916.51,755.61,885.87,677.72,970.8,603.28Z"/><path class="cls-3" d="M746.35,467.72V421.81H661V392.48l72.87-117.3H789V388h23.11v33.77H789v45.91Zm0-79.68V345.39c0-11.56.59-23.41,1.48-35.85h-1.18c-6.23,12.44-11.26,23.7-17.78,35.85L703.1,387.45V388Z"/><path class="cls-1" d="M973.25,370.56c0,59.54-24,100.42-73.17,100.42-49.76,0-71.68-44.73-72-99.23,0-55.69,23.7-99.83,73.46-99.83C953.11,271.92,973.25,317.84,973.25,370.56Zm-99.83,1.19c-.29,44.14,10.37,65.17,27.85,65.17s27-21.92,27-65.76C928.22,328.5,919,306,901,306,884.38,306,873.13,327,873.42,371.75Z"/><path class="cls-3" d="M1075.15,467.72V421.81H989.84V392.48l72.86-117.3h55.1V388h23.11v33.77H1117.8v45.91Zm0-79.68V345.39c0-11.56.59-23.41,1.48-35.85h-1.19c-6.22,12.44-11.25,23.7-17.77,35.85l-25.77,42.06V388Z"/><path class="cls-3" d="M605.56,485.33h-28.8a187.47,187.47,0,0,0-21.91-52.9l20.36-20.36a9.74,9.74,0,0,0,0-13.77l-49.87-49.87a9.72,9.72,0,0,0-13.77,0l-20.36,20.36a187.9,187.9,0,0,0-52.9-21.92V318.08a9.74,9.74,0,0,0-9.74-9.74H358.05a9.74,9.74,0,0,0-9.74,9.74v28.79a187.9,187.9,0,0,0-52.9,21.92l-20.36-20.36a9.72,9.72,0,0,0-13.77,0L211.41,398.3a9.74,9.74,0,0,0,0,13.77l20.36,20.36a187.76,187.76,0,0,0-21.91,52.9H181.07a9.73,9.73,0,0,0-9.74,9.73v70.53a9.74,9.74,0,0,0,9.74,9.74h28.79a187.82,187.82,0,0,0,21.91,52.89l-20.36,20.37a9.74,9.74,0,0,0,0,13.77l49.87,49.87a9.74,9.74,0,0,0,13.77,0l20.36-20.37a187.61,187.61,0,0,0,52.9,21.92v28.79a9.74,9.74,0,0,0,9.74,9.74h70.52a9.74,9.74,0,0,0,9.74-9.74V713.78a187.61,187.61,0,0,0,52.9-21.92l20.36,20.37a9.74,9.74,0,0,0,13.77,0l49.87-49.87a9.74,9.74,0,0,0,0-13.77l-20.36-20.37a187.53,187.53,0,0,0,21.91-52.89h28.8a9.74,9.74,0,0,0,9.73-9.74V495.06A9.73,9.73,0,0,0,605.56,485.33ZM393.31,636.89A106.57,106.57,0,1,1,499.88,530.33,106.56,106.56,0,0,1,393.31,636.89Z"/><path class="cls-3" d="M842.53,682.76l-15.59-6a108.59,108.59,0,0,0-.93-33.17l15.23-6.82a5.64,5.64,0,0,0,2.85-7.46l-16.7-37.3a5.64,5.64,0,0,0-7.45-2.85L804.7,596a108.77,108.77,0,0,0-24.11-22.8l5.95-15.59a5.64,5.64,0,0,0-3.26-7.28L745.1,535.78a5.65,5.65,0,0,0-7.29,3.26l-5.95,15.59a109.23,109.23,0,0,0-33.17.93l-6.82-15.23a5.63,5.63,0,0,0-7.45-2.84l-37.31,16.69a5.64,5.64,0,0,0-2.84,7.46l6.81,15.23A109,109,0,0,0,628.29,601l-15.59-6a5.65,5.65,0,0,0-7.29,3.26l-14.57,38.19a5.64,5.64,0,0,0,3.26,7.28l15.59,6a108.59,108.59,0,0,0,.93,33.17l-15.23,6.82a5.64,5.64,0,0,0-2.85,7.46l16.7,37.3a5.64,5.64,0,0,0,7.45,2.85l15.24-6.82A108.77,108.77,0,0,0,656,753.29l-5.95,15.59a5.64,5.64,0,0,0,3.26,7.28l38.18,14.58a5.65,5.65,0,0,0,7.29-3.26l5.95-15.59a109.23,109.23,0,0,0,33.17-.93l6.82,15.23a5.63,5.63,0,0,0,7.45,2.84l37.31-16.69a5.64,5.64,0,0,0,2.84-7.46l-6.81-15.23a109,109,0,0,0,22.79-24.11l15.59,6a5.65,5.65,0,0,0,7.29-3.26L845.79,690A5.64,5.64,0,0,0,842.53,682.76ZM706.62,693.89A32.79,32.79,0,1,1,749,675,32.78,32.78,0,0,1,706.62,693.89Z"/></g></g></svg>