<svg xmlns="http://www.w3.org/2000/svg" viewBox="0 0 1946.26 728.85"><defs><style>.cls-1{opacity:0.3;}.cls-2{fill:#e0f67d;stroke:#a8b751;}.cls-10,.cls-11,.cls-13,.cls-14,.cls-17,.cls-18,.cls-19,.cls-2,.cls-20,.cls-21,.cls-22,.cls-23,.cls-25,.cls-26,.cls-32,.cls-33,.cls-35,.cls-5,.cls-6,.cls-7,.cls-8,.cls-9{stroke-miterlimit:10;}.cls-10,.cls-11,.cls-17,.cls-18,.cls-19,.cls-2,.cls-20,.cls-21,.cls-22,.cls-23,.cls-25,.cls-26,.cls-32,.cls-33,.cls-35,.cls-5,.cls-6,.cls-7,.cls-8,.cls-9{stroke-width:3px;}.cls-3{fill:#020105;}.cls-13,.cls-32,.cls-4{fill:#fff;}.cls-5{fill:#7d3d0c;}.cls-10,.cls-11,.cls-13,.cls-14,.cls-17,.cls-18,.cls-19,.cls-20,.cls-21,.cls-22,.cls-23,.cls-25,.cls-26,.cls-32,.cls-35,.cls-5,.cls-6,.cls-7,.cls-8{stroke:#000;}.cls-6{fill:#873d1a;}.cls-7{fill:#fdfa08;}.cls-8{fill:none;}.cls-10,.cls-9{fill:#fdff20;}.cls-33,.cls-9{stroke:#9fba2d;}.cls-11{fill:#ffff1c;}.cls-12{fill:#70952d;}.cls-13,.cls-14{stroke-width:2px;}.cls-14{fill:#74d9ec;}.cls-15{fill:#020108;}.cls-16{fill:#bec83f;}.cls-17{fill:#971b15;}.cls-18{fill:#834117;}.cls-19{fill:#cc6f3c;}.cls-20{fill:#c9f5fd;}.cls-21{fill:#fafefd;}.cls-22{fill:#310e06;}.cls-23{fill:#fbfe1b;}.cls-24{fill:#692e00;}.cls-25{fill:#63daed;}.cls-26{fill:#b3f7ff;}.cls-27{fill:#9e180a;}.cls-28{fill:#060700;}.cls-29{fill:#cef4f3;}.cls-30{fill:#1d00ec;}.cls-31{fill:#000a36;}.cls-33{fill:#d9f56c;}.cls-34{fill:#71942c;}.cls-35{fill:#fffefe;}.cls-36{fill:#d0feff;}</style></defs><title>404Spongebob</title><g id="Livello_2" data-name="Livello 2"><g id="Livello_1-2" data-name="Livello 1"><ellipse class="cls-1" cx="1634.23" cy="667.73" rx="312.03" ry="61.12"/><path class="cls-2" d="M1690.15,109.23s-4.32-11.88-44.28,9.72c0,0-13.48-1-23.19-6.49s-31.88-.2-43,6.49-31.88-6.49-31.88-6.49-20.79-4-40.19,8.38c0,0-19.41,4.22-22.18,0s-23.56-8.67-45,1.87-63.76-4.7-63.76-4.7-14.55,2.28-21.48,8.42-22.87-7-22.87-7-13.87-11.09-29.81,15.24-36.73,16.64-36.73,16.64-15.94-1.39-25,15.24c-5.07,9.36-10.79,11.92-14.83,12.37a11.88,11.88,0,0,0-9.61,6.78c-2.78,6.1-4.95,15,.5,22.81,9.38,13.45,172.26,10,172.26,10L1656,210.88Z"/><path class="cls-3" d="M1780.34,640.5s0,7-30.35,4.67-19.61,48.09,9.34,45.29,46.22-15.41,51.35-43.89l7.94-.46,18.21-25.21-12.61-8.41s-13.52-37-39.91-7.53C1784.31,605,1766.33,624.16,1780.34,640.5Z"/><path class="cls-4" d="M1757.24,652.66s-11.87,1.49-5.16,6.22,11.92,0,11.92,0S1769.37,653.41,1757.24,652.66Z"/><path class="cls-3" d="M1507.74,612.51s-22.07-25.2-39.35-11.52-15.84,45.75,18,51.67c0,0,18.72,3.85,30.6-10.59h27l15.12-7.24V621.15s5-1.39,0-16.9S1519.73,588.75,1507.74,612.51Z"/><path class="cls-4" d="M1494.31,615.32s-3.84-4-7.92-5.33-8.09,5.33-2.31,7.56S1494.75,623.77,1494.31,615.32Z"/><path class="cls-5" d="M1805.71,477.51s-3.24,72.36-24.84,76.68-60.48-4.32-73.44-17.28l23.76-46.66Z"/><path class="cls-6" d="M1583.59,500.19l-22.32,55.12s-57.6,21-74.88-22.11c0,0,4.32-22.21,59-33S1583.59,500.19,1583.59,500.19Z"/><path class="cls-7" d="M1789.51,607.11c-13-5.4-45.36-18.36-45.36-18.36s-13,11.57,12.41-51.44a51.19,51.19,0,0,0-20-4.09s-22.69,46.89-16.21,64.17c0,0,19.44,17.28,69.12,28.08C1789.51,625.47,1802.47,612.51,1789.51,607.11Z"/><path class="cls-7" d="M1531.85,542.62a54.54,54.54,0,0,0-14.17-7l-42.09,29.48s-14.4,11.4,10.8,19.32L1517,601s24.12,9.36,27-3.6l-49.68-26.45Z"/><path class="cls-8" d="M1720.39,534.75s31.32-7.56,47.52,10.8"/><path class="cls-8" d="M1494.31,533.2a55.6,55.6,0,0,1,45.36,15.95"/><path class="cls-9" d="M1218.19,197.79s7.56-15.12,43.2,0c0,0,17.48,2.76,34.12-6.72s40.4,7.09,40.4,7.09,17.44,1.15,45.44-5,82-6.71,99.28,0,40,3.66,52.92-5.05,28.08,11.64,38.88,10.11,21.92-16.17,36.72-6.1,40,35.88,40,35.88l118.8,220.32,45.36,42.57s-149,76.23-367.2-5.85-198.72-246.24-198.72-246.24S1206.31,212.91,1218.19,197.79Z"/><path class="cls-10" d="M1266.49,232.32s-61.14,35-23,48.07,23-10.11,23-10.11"/><path class="cls-10" d="M1419.46,451.75s-30.75,25.16-54.27,97.4c0,0-63.84-49.2-42.24-128.88s31.2-52.32,31.2-52.32"/><path class="cls-11" d="M1365.56,332.74c-14,17.55-28.1,26.56-38.74,31.57-17.69,8.32-32.17,8.56-41.62,21.52-1.83,2.52-11.23,14.19-7.18,24.4s19.1,12.5,23,12.91c27.06,2.93,49.48-23.82,56-31.57,17-20.27,22.45-42.5,24.4-56"/><path class="cls-10" d="M1569.6,448.11s-2.52,5.54-38.5,12.8-71.63,17.67-86.47,25.56-28.4,14-36.6,8.92-2.84-16.81,2.84-20.92-6.23-6-6.23-6"/><path class="cls-10" d="M1304.39,353.37s-36.47,14.76-40.77-8.86"/><path class="cls-8" d="M1503.67,233.79s46.8-39.6,96.48,0"/><path class="cls-8" d="M1507.74,351.87s44.17,28.43,95.29-7"/><path class="cls-12" d="M1343.75,163.09s-21.37,4.27-5.7,11.87,33.73,1.43,30.17-3.32S1365.6,165.46,1343.75,163.09Z"/><path class="cls-12" d="M1355.53,132.64s-42.18,2.42-26.5,13.82,49.06,4,53.39,0S1396.76,135,1355.53,132.64Z"/><path class="cls-12" d="M1528.69,151.06s-53.12,2.92-33.38,16.7,61.79,4.84,67.24,0S1580.61,153.88,1528.69,151.06Z"/><path class="cls-12" d="M1503.37,128.8s-21.4,1.8-13.45,10.32,24.89,3,27.09,0S1524.28,130.54,1503.37,128.8Z"/><path class="cls-12" d="M1601.14,123.38s-28.58,1.92-18,11,33.25,3.18,36.18,0S1629.07,125.23,1601.14,123.38Z"/><path d="M1503.67,267.34l-12.76-16.91s1.41-7.74,6.38-3.87,16.08,22.72,16.08,22.72Z"/><path d="M1533.67,253.81l-4.24-15.47s-1.93-6.82,2.12-7,3.23.27,4.61,5.58,5.66,16.92,5.66,16.92Z"/><path d="M1559.37,253.07l4.27-19.28s6-3.82,5.2,3.72-2.62,11.94-1.7,18.93S1559.37,253.07,1559.37,253.07Z"/><path d="M1308.32,256.47s3.75-7.86,3.75-13.16,2.57-7.52,4.28-5.13,1.71,3.42,0,7.69-1.54,13.84-1.54,13.84Z"/><path d="M1281.49,258.35c-.17-.86,1-5.81-1-13.16s-1.51-7.69.61-8.89,3.66,1.71,3.15,5.3,2.73,12.21,2.73,12.21l1.88,4.54Z"/><path d="M1262.52,265.69s-6.84-6.66-8-10.08-2-5.3-5-5-3.25,4.4,0,7.49,5.82,4.13,8.38,11.3S1262.52,265.69,1262.52,265.69Z"/><path class="cls-13" d="M1293,254.12a66,66,0,0,0-33.27,11.48c-8.68,6-17.77,15-20.74,27.07-4.64,18.84-1.4,33.68,14.6,46.66,19,15.42,55.17,7.65,64.91,4.64s32.45-25.74,32.22-47.29-17.85-36.17-32.45-40.8C1311,253.58,1301.11,253.56,1293,254.12Z"/><path class="cls-14" d="M1270.91,280.49c-1,0-27.25,8.44-19.14,29.53s28.55,13.3,34.07,9.41,10.57-12.66,9.67-20.44S1291,279.84,1270.91,280.49Z"/><path class="cls-15" d="M1265.72,293.15s-13.3,7.46-5.19,16.22,16.87-3.63,17.52-6.84S1275.46,290.55,1265.72,293.15Z"/><path class="cls-13" d="M1537.1,251.17s-21.4,2.57-36.24,13.7S1475.17,300,1484,317.67s26.25,31.4,67.07,26,54.22-26.82,55.08-47.09-16.27-38.24-31.39-42.24S1545.79,249.67,1537.1,251.17Z"/><path class="cls-14" d="M1560.79,284s-12.24,4.8-12.72,17.76,6.48,18.72,12.72,20.64,19.44,1.44,24-6,5.4-11.52,4.56-20.4C1588.06,282.44,1566.46,280.37,1560.79,284Z"/><path class="cls-15" d="M1564.63,296s-6.48,5.52-4.08,10.32,3.36,4.56,7,6.72,11-3.36,10.08-8.52-1.44-6.6-5-8.52S1564.63,296,1564.63,296Z"/><path class="cls-16" d="M1278.13,208.21c-2.73-.55-43.63,3.8-32.71,12.83s41.33-1.9,41.33-1.9S1297.06,212,1278.13,208.21Z"/><path class="cls-16" d="M1646.36,433.71s-53.42,3.5-33.57,20,62.14,5.8,67.61,0S1698.57,437.08,1646.36,433.71Z"/><path class="cls-16" d="M1698,468.77s-22.31,2.46-14,14,26,4.06,28.24,0S1719.77,471.14,1698,468.77Z"/><path class="cls-16" d="M1570.27,204.13s3.64.23,1.36,4.56-13,1.14-13,1.14-9.8-2.51-14.13-1.37-3.66-6.38,3.52-6.15S1561.84,200,1570.27,204.13Z"/><path class="cls-16" d="M1386.58,392.41s-3.82,6.83-4.29,13.51,0,8.58,1,9.69,5.72,1.75,7.47-9.53S1389.91,389.23,1386.58,392.41Z"/><path class="cls-17" d="M1430.62,468.5s74.07-38.56,120.24-40.59c0,0,15.64-3.05,4.52-15.22s-64.39-2.54-64.39-2.54-51.75,16.74-71.53,41.6C1419.46,451.75,1435.18,460.38,1430.62,468.5Z"/><path class="cls-18" d="M1862.92,468.77l-25-99.29,55.3-31.48L1921,424.38S1926.29,435.27,1862.92,468.77Z"/><path class="cls-19" d="M1837.89,369.48l-64.5-5.91,7.59-39.29s9.69,20.76,53.68,20.76,58.53-7,58.53-7Z"/><polygon class="cls-20" points="1809.86 383.22 1837.89 369.49 1862.92 468.77 1813.27 490.92 1792.86 391.49 1809.86 383.22"/><polygon class="cls-21" points="1783.48 364.5 1792.86 391.49 1837.89 369.49 1783.48 364.5"/><polygon class="cls-22" points="1870.12 441.87 1884.73 434.31 1869.4 381.39 1852.15 363.57 1870.12 441.87"/><path class="cls-23" d="M1876,324.06s-.35-18.38-7.7-7.49S1858.6,345,1858.6,345h26.13Z"/><path class="cls-23" d="M1865.86,334.47s10.05-69.72,10.05-91.32-6.48-15.12-14-13-48.6,45.36-48.6,45.36v23.76l38.88-37.8L1844.59,363s3.24,27,27,23.76,52.92-43.2,55.08-64.8-7.56-23.76-7.56-23.76-1.08-17.28-17.28-5.4c0,0-8.64-14-16.2,5.4C1885.63,298.23,1877.41,331.83,1865.86,334.47Z"/><path class="cls-8" d="M1884.73,351.22s-19.24,5.7-14.61,24.7"/><path class="cls-8" d="M1884.73,332s10-13.83,10.41-21,3.08-15.87,6.69-18.18"/><path class="cls-8" d="M1897.24,345s6.7-6.15,8.38-17.79c0,0,3.91-26.71,13.49-29"/><line class="cls-8" x1="1862.85" y1="358.38" x2="1865.86" y2="334.47"/><path class="cls-8" d="M1877.06,336.15s17.82,3.37,22.56,6.1"/><line class="cls-8" x1="1416.2" y1="476.75" x2="1430.62" y2="468.5"/><circle class="cls-24" cx="1609.79" cy="361.29" r="2.92"/><circle class="cls-24" cx="1637.21" cy="354.26" r="2.5"/><path class="cls-24" d="M1632.7,372.52c0,1.38-1.72,3.13-3.85,3.13s-3.84-1.75-3.84-3.13,1.72-3.16,3.84-3.16S1632.7,371.14,1632.7,372.52Z"/><path class="cls-25" d="M1465.51,138s19.44,29.52-25.2,73.44c-42.12,41.43-81.66,7.25-77.55-6.42a14.5,14.5,0,0,1,11.1-13.92c11.35-3,39.09-17.82,38.28-25.52S1465.51,138,1465.51,138Z"/><path class="cls-26" d="M1466.86,140.7c0,6.25-1.15,14.65-4.7,25.32-8.91,26.73-36.45,45.36-53.87,51-15.14,4.93-37.46,1.89-45.17-14.94a14,14,0,0,0-.36,2.94c-4.11,13.67,35.43,47.85,77.55,6.42C1477.08,175.29,1470.37,148.88,1466.86,140.7Z"/><path class="cls-27" d="M1363.19,2.73s31.3-13.87,49.08,20.9,20.66,50.23,29.76,59.13,18.69,27.19,15.09,37.16-1.41,13.44-22,30.11-46.57-2.12-46.57-2.12-10.59-5.26-20.32-31.76a142.71,142.71,0,0,0-26.42-44.22s-15.65-18.3-4-52.23C1337.79,19.7,1349.19,4.61,1363.19,2.73Z"/><path class="cls-28" d="M1451.11,113.07s14.26,10.24,14.4,25-25.92,27.84-35,29.28-18.72,0-23.52-4.8-6.24-16.32-6.24-16.32Z"/><path class="cls-29" d="M1364.55,4s28-11.34,45,21.87,21.26,50.42,30,58.93,18.43,23.69,15,33.21-1.35,12.83-21.06,28.76-44.55-2-44.55-2-9.92-9.11-19.24-34.42a119.41,119.41,0,0,0-25.72-41.11s-14.78-16.61-3.64-49C1340.25,20.21,1351.16,5.8,1364.55,4Z"/><path class="cls-30" d="M1409.25,98.29l-1.91.58c2.08,6.77,1.3,13.38-2.08,17.68a11,11,0,0,1-9,4.32c-2.9-5.35-11.33-20.89-17.85-32.89a8.46,8.46,0,0,0,3.54.73c4-.08,8.09-3,12-8.81l-1.65-1.12c-3.53,5.18-7,7.85-10.38,7.93h-.14a7.72,7.72,0,0,1-5.62-2.86c-2.62-4.8-4.69-8.6-5.6-10.25l.28-.11a5.48,5.48,0,0,0,1.57-8.41c-.88-.88-2.58-1.82-5.77-1.31l-.23,0-.18.13c-.37.25-3.55,2.53-3.49,5.25a3.94,3.94,0,0,0,2.15,3.3,8.17,8.17,0,0,0,3.51,1.35c.27.46,2.55,4.63,5.77,10.55-1,1.82-2.26,2.82-3.63,3-3,.3-6.17-3.53-6.2-3.57L1362.76,85c.14.18,3.5,4.33,7.43,4.33a4.52,4.52,0,0,0,.52,0,6.34,6.34,0,0,0,4.53-2.94c5.53,10.16,13.22,24.33,18.57,34.21-7.74-1.58-14.86-9.5-17.33-12.24-.39-.45-.7-.78-.9-1l-1.41,1.41.83.91c3.09,3.44,11.31,12.6,20.57,13.16l.88,0a12.93,12.93,0,0,0,10.38-5.1C1410.62,113,1411.52,105.68,1409.25,98.29Zm-44.53-29.14c0-1.29,1.64-2.83,2.45-3.44,1.74-.24,3,0,3.8.78a3.23,3.23,0,0,1,.69,2.76,3.17,3.17,0,0,1-1.66,2.41c-1,.47-2.44.17-4.06-.86C1364.74,70,1364.72,69.37,1364.72,69.15Z"/><path class="cls-8" d="M1359.43,11.23s27.84-1.84,44.16,40.4,28.32,46.95,28.32,46.95,20.1,18.35,16.72,37.65"/><path class="cls-31" d="M1355.64,2.14s-8.86,3.52-9.72,8.15.4,6.88,4,9.51,11.74-2.22,13.77-5.87,3.44-9.52-3.44-10.94C1360.3,3,1357.52,1.28,1355.64,2.14Z"/><path class="cls-32" d="M1544,597.39l-45.48-24.21-10.15,12.32L1517,601S1541.11,610.35,1544,597.39Z"/><path class="cls-32" d="M1789.51,607.11c-13-5.4-45.36-18.36-45.36-18.36s-1.69,1.5-2.66.47l-8.66,16.3c10.78,5.93,29,13.94,56.68,20C1789.51,625.47,1802.47,612.51,1789.51,607.11Z"/><path class="cls-33" d="M1690.15,109.23s15.84,11.52,13,25.92-7.94,23,.35,38.88,14.37,12.6,17.66,27.07-3.95,42.11,4.6,50.66,19.74,29.61,15.14,46.72,43.47,56.67,43.47,56.67,4.56,15.05,8.51,16.36,21.05-9.87,17.76,9.21-3.95,28.3,4,38.17,0,30.92,0,30.92,9.46,43.08-1.28,41.11-6.62-8.87-11.88-8.21-15.13,5.92-25,4.6-12.5-21.71-12.5-21.71-5.93-2-19.08,2.63-20.4-33.55-20.4-33.55-6.58-16.45-23.69-17.11-15.13-39.52-15.13-39.52,0-14.43-20.4-26.28-7.89-42.11-7.89-42.11-1.32-10.52-16.45-32.89-19.74-17.77-14.48-52c0,0,2-22.37-7.89-31.58s6.58-27,15.13-23.69,13.82-18.42,13.82-18.42-2-15.14,14.47-15.14,15.14-9.87,15.14-9.87S1675,115.39,1690.15,109.23Z"/><path class="cls-34" d="M1675.18,188.91s-22.11,6.4-19,45.33c2.78,34.83,35.19,13.15,38.29,0S1704.75,196.56,1675.18,188.91Z"/><path class="cls-34" d="M1726.11,327.25s-21.45,6.21-18.44,44c2.69,33.78,34.13,12.75,37.14,0S1754.79,334.68,1726.11,327.25Z"/><path class="cls-34" d="M1772.65,391.49s-10.72,3.1-9.22,22c1.35,16.88,17.06,6.37,18.57,0S1787,395.2,1772.65,391.49Z"/><path class="cls-34" d="M1700.41,271.74s-10.72,3.11-9.21,22c1.34,16.88,17.06,6.37,18.56,0S1714.75,275.45,1700.41,271.74Z"/><path class="cls-35" d="M1734.79,352.59s-2.88-43.2,40.32-83.52c0,0,64.8-1.44,51.84,41.76S1739.11,380,1734.79,352.59Z"/><path class="cls-36" d="M1776.31,287.3s-19.64,20.59-19.07,39.95l35.62-34.42Z"/><path d="M3.09,126.31c0-6.73-.22-12.48-.44-17.22H17.23l.77,7.39h.33A19.78,19.78,0,0,1,35,107.87c11,0,19.32,7.29,19.32,23.19v32H37.55V133.16c0-7-2.43-11.71-8.51-11.71a9,9,0,0,0-8.5,6.3,11.55,11.55,0,0,0-.66,4.19v31.14H3.09Z"/><path d="M136.49,125.1c0,24.4-14.8,39.2-36.55,39.2-22.09,0-35-16.68-35-37.88,0-22.3,14.25-39,36.22-39C124,87.44,136.49,104.56,136.49,125.1Zm-53.78,1c0,14.58,6.85,24.85,18.11,24.85s17.89-10.82,17.89-25.29c0-13.36-6.4-24.85-18-24.85C89.34,100.8,82.71,111.63,82.71,126.09Z"/><path d="M147.42,126.31c0-6.73-.22-12.48-.44-17.22h14.58l.77,7.39h.33a19.77,19.77,0,0,1,16.67-8.61c11,0,19.33,7.29,19.33,23.19v32H181.87V133.16c0-7-2.43-11.71-8.5-11.71a9,9,0,0,0-8.5,6.3,11.55,11.55,0,0,0-.66,4.19v31.14H147.42Z"/><path d="M247.36,141.44c.55,7,7.4,10.27,15.24,10.27a47.36,47.36,0,0,0,14.9-2.21l2.21,11.38a53.44,53.44,0,0,1-19.54,3.31c-18.33,0-28.82-10.6-28.82-27.5,0-13.69,8.5-28.82,27.27-28.82,17.45,0,24.07,13.58,24.07,26.95a39.9,39.9,0,0,1-.55,6.62ZM267.12,130c0-4.09-1.76-10.94-9.49-10.94-7.07,0-9.94,6.41-10.38,10.94Z"/><path d="M293.85,145.75a42.92,42.92,0,0,0,18.66,4.64c7.73,0,11.82-3.21,11.82-8.07,0-4.63-3.54-7.28-12.48-10.49-12.37-4.3-20.43-11.15-20.43-22,0-12.7,10.6-22.42,28.16-22.42a45.55,45.55,0,0,1,19,3.76l-3.75,13.58a35.35,35.35,0,0,0-15.57-3.53c-7.29,0-10.83,3.31-10.83,7.17,0,4.75,4.2,6.85,13.81,10.49,13.14,4.86,19.32,11.71,19.32,22.2,0,12.48-9.6,23.08-30,23.08-8.51,0-16.9-2.21-21.1-4.53Z"/><path d="M369.71,94.07c0,4.64-3.53,8.39-9,8.39-5.3,0-8.84-3.75-8.73-8.39-.11-4.86,3.43-8.51,8.84-8.51S369.6,89.21,369.71,94.07Zm-17.34,69v-54h16.79v54Z"/><path d="M383.73,145.75a43,43,0,0,0,18.67,4.64c7.73,0,11.81-3.21,11.81-8.07,0-4.63-3.53-7.28-12.48-10.49-12.36-4.3-20.42-11.15-20.42-22,0-12.7,10.6-22.42,28.15-22.42a45.57,45.57,0,0,1,19,3.76l-3.76,13.58a35.31,35.31,0,0,0-15.57-3.53c-7.29,0-10.82,3.31-10.82,7.17,0,4.75,4.2,6.85,13.8,10.49,13.15,4.86,19.33,11.71,19.33,22.2,0,12.48-9.61,23.08-30,23.08-8.5,0-16.89-2.21-21.09-4.53Z"/><path d="M457.17,102.79h-20V88.66h57.2v14.13H474.06v60.29H457.17Z"/><path d="M506.75,141.44c.55,7,7.4,10.27,15.24,10.27a47.47,47.47,0,0,0,14.91-2.21l2.21,11.38a53.53,53.53,0,0,1-19.55,3.31c-18.33,0-28.82-10.6-28.82-27.5,0-13.69,8.5-28.82,27.27-28.82,17.45,0,24.08,13.58,24.08,26.95a39.9,39.9,0,0,1-.55,6.62ZM526.52,130c0-4.09-1.77-10.94-9.5-10.94-7.07,0-9.94,6.41-10.38,10.94Z"/><path d="M574.44,84.68h16.79v78.4H574.44Z"/><path d="M622.7,144l-5.3,19.1H600L622.7,88.66h22.08l23.08,74.42H649.75L644,144Zm18.88-12.59-4.64-15.79c-1.32-4.42-2.65-9.94-3.75-14.35H633c-1.11,4.41-2.21,10-3.43,14.35l-4.41,15.79Z"/><path d="M699.56,127.2c0-7.07-.23-13.14-.45-18.11h14.58l.77,7.5h.22c4-5.74,10.16-8.72,18-8.72,11.82,0,22.42,10.27,22.42,27.5,0,19.65-12.48,28.93-24.51,28.93-6.52,0-11.6-2.65-14-6.18h-.22V185H699.56Zm16.78,12.69a16.78,16.78,0,0,0,.33,3.54,10.16,10.16,0,0,0,9.83,7.95c7.29,0,11.59-6.07,11.59-15.24,0-8.61-3.86-15.13-11.37-15.13a10.56,10.56,0,0,0-10.05,8.5,13.11,13.11,0,0,0-.33,3Z"/><path d="M783.48,144l-5.3,19.1H760.73l22.75-74.42h22.09l23.07,74.42h-18.1L804.79,144Zm18.88-12.59-4.64-15.79c-1.32-4.42-2.65-9.94-3.75-14.35h-.22c-1.1,4.41-2.21,10-3.42,14.35l-4.42,15.79Z"/><path d="M898,159.66a83.11,83.11,0,0,1-24.84,4.2c-13.59,0-23.41-3.43-30.26-10.05-6.85-6.41-10.6-16.12-10.49-27.06.11-24.73,18.11-38.87,42.51-38.87,9.61,0,17,1.88,20.65,3.65L892,105c-4.08-1.77-9.16-3.2-17.34-3.2-14,0-24.62,8-24.62,24.07,0,15.35,9.61,24.41,23.41,24.41,3.86,0,7-.45,8.28-1.11V133.6H870.28V120.46H898Z"/><path d="M928.25,94.07c0,4.64-3.54,8.39-9.06,8.39-5.3,0-8.83-3.75-8.72-8.39-.11-4.86,3.42-8.51,8.83-8.51S928.14,89.21,928.25,94.07Zm-17.34,69v-54H927.7v54Z"/><path d="M941.17,126.31c0-6.73-.22-12.48-.44-17.22H955.3l.78,7.39h.33a19.77,19.77,0,0,1,16.67-8.61c11,0,19.33,7.29,19.33,23.19v32H975.62V133.16c0-7-2.43-11.71-8.5-11.71a9,9,0,0,0-8.5,6.3,11.32,11.32,0,0,0-.67,4.19v31.14H941.17Z"/><path d="M1023.77,144l-5.3,19.1H1001l22.75-74.42h22.08l23.08,74.42h-18.11l-5.74-19.1Zm18.88-12.59L1038,115.6c-1.32-4.42-2.65-9.94-3.75-14.35H1034c-1.11,4.41-2.21,10-3.42,14.35l-4.42,15.79Z"/><path d="M16,406.47c.55,7,7.4,10.27,15.24,10.27a47.47,47.47,0,0,0,14.91-2.21l2.21,11.37a53.28,53.28,0,0,1-19.55,3.32C10.49,429.22,0,418.62,0,401.72,0,388,8.5,372.9,27.28,372.9c17.44,0,24.07,13.58,24.07,26.94a40.16,40.16,0,0,1-.55,6.63ZM35.78,395c0-4.08-1.77-10.93-9.5-10.93-7.07,0-9.94,6.41-10.38,10.93Z"/><path d="M62,354.68a146.94,146.94,0,0,1,22.42-1.55c11,0,18.77,1.66,24.07,5.85,4.42,3.54,6.85,8.73,6.85,15.58,0,9.49-6.74,16-13.14,18.33v.33c5.19,2.1,8.06,7.07,9.93,13.91,2.32,8.39,4.64,18.11,6.08,21H100.93c-1.21-2.1-3-8.17-5.19-17.33-2-9.28-5.19-11.82-12-11.93H78.63v29.26H62Zm16.68,32h6.62c8.39,0,13.36-4.19,13.36-10.71,0-6.85-4.64-10.27-12.37-10.38a42,42,0,0,0-7.61.55Z"/><path d="M128,391.89c0-7.95-.22-13.14-.44-17.78H142l.55,9.94H143c2.76-7.84,9.39-11.15,14.58-11.15a17.28,17.28,0,0,1,3.53.22v15.79a24.09,24.09,0,0,0-4.52-.44c-6.19,0-10.38,3.31-11.49,8.5a19.93,19.93,0,0,0-.33,3.76v27.38H128Z"/><path d="M222.4,400.51c0,19.76-14,28.82-28.49,28.82C178.12,429.33,166,419,166,401.5s11.49-28.6,28.82-28.6C211.36,372.9,222.4,384.27,222.4,400.51Zm-39.09.55c0,9.27,3.86,16.23,11,16.23,6.52,0,10.71-6.51,10.71-16.23,0-8.06-3.09-16.23-10.71-16.23C186.29,384.83,183.31,393.11,183.31,401.06Z"/><path d="M233.33,354.68a146.94,146.94,0,0,1,22.42-1.55c11,0,18.77,1.66,24.07,5.85,4.42,3.54,6.85,8.73,6.85,15.58,0,9.49-6.74,16-13.14,18.33v.33c5.19,2.1,8.06,7.07,9.94,13.91,2.32,8.39,4.63,18.11,6.07,21H272.31c-1.21-2.1-3-8.17-5.19-17.33-2-9.28-5.19-11.82-12-11.93H250v29.26H233.33Zm16.68,32h6.62C265,386.7,270,382.51,270,376c0-6.85-4.63-10.27-12.36-10.38a42.1,42.1,0,0,0-7.62.55Z"/><path d="M449.09,449.7V394.27h-103V358.86l88-141.62h66.52V353.5h27.89v40.77H500.59V449.7Zm0-96.2V302c0-13.95.71-28.25,1.78-43.27h-1.42c-7.52,15-13.6,28.61-21.46,43.27l-31.12,50.79v.71Z"/><path d="M723,332.4c0,71.88-29,121.24-88.34,121.24-60.08,0-86.55-54-86.91-119.81,0-67.24,28.61-120.52,88.7-120.52C698.72,213.31,723,268.74,723,332.4Zm-120.53,1.43c-.36,53.29,12.52,78.68,33.62,78.68s32.54-26.47,32.54-79.4c0-51.49-11.08-78.67-32.9-78.67C615.75,254.44,602.15,279.83,602.51,333.83Z"/><path d="M846.06,449.7V394.27h-103V358.86l88-141.62h66.52V353.5h27.89v40.77H897.56V449.7Zm0-96.2V302c0-13.95.71-28.25,1.79-43.27h-1.43c-7.51,15-13.59,28.61-21.46,43.27l-31.12,50.79v.71Z"/></g></g></svg>