<svg xmlns="http://www.w3.org/2000/svg" viewBox="0 0 1600 400"><defs><style>.cls-1{fill:#d8e4ff;}.cls-2{fill:#31e981;}.cls-3{fill:#00120b;}</style></defs><title>carosello2</title><g id="Livello_2" data-name="Livello 2"><g id="Livello_1-2" data-name="Livello 1"><rect class="cls-1" width="1600" height="400"/><path class="cls-2" d="M971.7,75.36c-2.83-6.18-10.62-7.63-17-9.47C920.75,56.23,894.55,27.45,877.31,0H0V79.92c21.54,2.46,41.72-2.72,58.59,14.5,26.7,27.26-.57,64,15,138.11,6.07,28.85,18.22,86.66,64.55,112.58,39.09,21.88,62.38-15,109.58,1.51,30.45,10.65,43.37,32.77,57.93,53.38H558.94c10.17-40.49-1.19-90,34.06-116.35,42.42-31.7,88.22,18.12,143.91-13.26,59.29-33.4,40-108.27,98.46-130.65,38.69-14.81,66.2,10.68,104.14-15.15C958.08,112,977.54,88.12,971.7,75.36Z"/><path class="cls-2" d="M971.7,75.36c-2.83-6.18-10.62-7.63-17-9.47C920.75,56.23,894.55,27.45,877.31,0H0V79.92c21.54,2.46,41.72-2.72,58.59,14.5,26.7,27.26-.57,64,15,138.11,6.07,28.85,18.22,86.66,64.55,112.58,39.09,21.88,62.38-15,109.58,1.51,30.45,10.65,43.37,32.77,57.93,53.38H558.94c10.17-40.49-1.19-90,34.06-116.35,42.42-31.7,88.22,18.12,143.91-13.26,59.29-33.4,40-108.27,98.46-130.65,38.69-14.81,66.2,10.68,104.14-15.15C958.08,112,977.54,88.12,971.7,75.36Z"/><path class="cls-3" d="M824.51,0H0V48.8C47.59,57.4,104.39,108.19,115.63,162c11.16,53.37-27.73,84.82-7.5,118.59,20.8,34.75,71.81,17.95,145.61,45,43,15.8,91.43,45.65,118.09,74.4h127c-2.21-47.25,32.28-108.42,76.31-130.39,44.84-22.38,72.32,9.52,123.84-13,59.82-26.1,46.9-79.66,112.32-122.4,64.17-41.92,127.58-23.69,132.48-46.08C949.62,61.49,859.19,37.28,824.51,0Z"/><path class="cls-2" d="M662.29,324.64c2.83,6.18,10.62,7.63,17,9.47,33.91,9.66,60.11,38.44,77.35,65.89H1600V320.08c-21.54-2.46-41.94-6.56-50-29.29-13.51-38.19,26-49.2,10.37-123.32-6.07-28.85-18.22-86.66-64.55-112.58-39.09-21.88-62.38,15-109.59-1.51-30.44-10.65-43.36-32.77-57.92-53.38H1038.84l-7.5,19.36c-10.17,40.5,79.8,65.82,44.56,92.15-42.42,31.7-149.26,42.11-205,73.48-59.3,33.41-13.86,52.89-72.33,75.27-38.69,14.81-66.2-10.68-104.14,15.15C675.91,288.05,656.45,311.88,662.29,324.64Z"/><path class="cls-3" d="M809.48,400H1600V351.2c-56.93-9.06-81.78-59.95-81.64-113.17.13-54.52,27.73-84.82,7.5-118.59-20.8-34.75-71.81-18-145.61-45-43-15.8-91.43-45.65-118.09-74.4H1075.1c2.2,47.25,62.67,103.58,18.65,125.55-44.84,22.38-133.37,50.7-184.88,73.18-59.82,26.11-20.77,24.28-86.19,67-64.17,41.92-127.58,23.69-132.48,46.08C684.37,338.51,774.8,362.72,809.48,400Z"/><path class="cls-1" d="M1322.57,273.72H1064.51a15.16,15.16,0,0,1-15.14-15.14v-28a15.15,15.15,0,0,1,15.14-15.14h258.06a15.15,15.15,0,0,1,15.14,15.14v28A15.16,15.16,0,0,1,1322.57,273.72Zm-258.06-55.86a12.74,12.74,0,0,0-12.73,12.73v28a12.74,12.74,0,0,0,12.73,12.73h258.06a12.74,12.74,0,0,0,12.73-12.73v-28a12.74,12.74,0,0,0-12.73-12.73Z"/><path class="cls-1" d="M1301,252.6A14.63,14.63,0,1,1,1315.61,238,14.64,14.64,0,0,1,1301,252.6Zm0-25.77A11.15,11.15,0,1,0,1312.13,238,11.16,11.16,0,0,0,1301,226.83Z"/><rect class="cls-1" x="1316.85" y="243.57" width="3.48" height="24.03" transform="translate(205.48 1007.24) rotate(-45)"/><path class="cls-1" d="M653.77,168.9H395.71a15.15,15.15,0,0,1-15.14-15.14v-28a15.15,15.15,0,0,1,15.14-15.14H653.77a15.15,15.15,0,0,1,15.14,15.14v28A15.15,15.15,0,0,1,653.77,168.9ZM395.71,113A12.74,12.74,0,0,0,383,125.77v28a12.74,12.74,0,0,0,12.73,12.73H653.77a12.74,12.74,0,0,0,12.73-12.73v-28A12.74,12.74,0,0,0,653.77,113Z"/><path class="cls-1" d="M632.18,147.78a14.63,14.63,0,1,1,14.63-14.62A14.64,14.64,0,0,1,632.18,147.78Zm0-25.77a11.15,11.15,0,1,0,11.15,11.15A11.16,11.16,0,0,0,632.18,122Z"/><rect class="cls-1" x="648.05" y="138.75" width="3.48" height="24.03" transform="translate(83.71 503.63) rotate(-45)"/><path class="cls-2" d="M1085.12,233.63l-4.21,5.53v.09l6.69-.88v3l-6.69-.8v.09l4.25,5.31-2.78,1.59-2.66-6.19h-.09l-2.88,6.24-2.52-1.6,4.21-5.4v-.09l-6.56.85v-3l6.51.84v-.09l-4.16-5.4,2.7-1.55,2.75,6.15h.08l2.7-6.2Z"/><path class="cls-2" d="M1103.49,233.63l-4.2,5.53v.09l6.68-.88v3l-6.68-.8v.09l4.25,5.31-2.79,1.59-2.66-6.19H1098l-2.88,6.24-2.52-1.6,4.21-5.4v-.09l-6.55.85v-3l6.5.84v-.09l-4.16-5.4,2.7-1.55,2.75,6.15h.08l2.71-6.2Z"/><path class="cls-2" d="M1121.86,233.63l-4.2,5.53v.09l6.68-.88v3l-6.68-.8v.09l4.25,5.31-2.79,1.59-2.66-6.19h-.09l-2.87,6.24L1111,246l4.21-5.4v-.09l-6.55.85v-3l6.5.84v-.09l-4.16-5.4,2.7-1.55,2.75,6.15h.09l2.7-6.2Z"/><path class="cls-2" d="M1140.23,233.63l-4.2,5.53v.09l6.68-.88v3l-6.68-.8v.09l4.25,5.31-2.79,1.59-2.66-6.19h-.09l-2.87,6.24-2.53-1.6,4.21-5.4v-.09l-6.55.85v-3l6.5.84v-.09l-4.16-5.4,2.7-1.55,2.75,6.15h.09l2.7-6.2Z"/><path class="cls-2" d="M1158.6,233.63l-4.2,5.53v.09l6.68-.88v3l-6.68-.8v.09l4.25,5.31-2.79,1.59-2.66-6.19h-.09l-2.87,6.24-2.53-1.6,4.21-5.4v-.09l-6.55.85v-3l6.51.84v-.09l-4.17-5.4,2.7-1.55,2.75,6.15h.09l2.7-6.2Z"/><path class="cls-2" d="M1177,233.63l-4.2,5.53v.09l6.68-.88v3l-6.68-.8v.09L1177,246l-2.79,1.59-2.66-6.19h-.08l-2.88,6.24-2.53-1.6,4.21-5.4v-.09l-6.55.85v-3l6.51.84v-.09l-4.17-5.4,2.71-1.55,2.74,6.15h.09l2.7-6.2Z"/><path class="cls-2" d="M1195.35,233.63l-4.21,5.53v.09l6.68-.88v3l-6.68-.8v.09l4.25,5.31-2.79,1.59-2.66-6.19h-.08l-2.88,6.24-2.52-1.6,4.2-5.4v-.09l-6.55.85v-3l6.51.84v-.09l-4.16-5.4,2.7-1.55,2.74,6.15h.09l2.7-6.2Z"/><rect class="cls-2" x="410.36" y="152.07" width="17.21" height="3.48"/><rect class="cls-2" x="439.33" y="152.07" width="17.21" height="3.48"/><rect class="cls-2" x="468.3" y="152.07" width="17.21" height="3.48"/><rect class="cls-2" x="497.27" y="152.07" width="17.21" height="3.48"/><rect class="cls-2" x="526.24" y="152.07" width="17.21" height="3.48"/><rect class="cls-2" x="555.21" y="152.07" width="17.21" height="3.48"/><rect class="cls-2" x="584.18" y="152.07" width="17.21" height="3.48"/><path class="cls-2" d="M406,89a19.29,19.29,0,0,1-7.88,1.41c-8.41,0-14.74-5.31-14.74-15.09,0-9.34,6.33-15.67,15.58-15.67A16,16,0,0,1,406,60.92l-.93,3.15a14,14,0,0,0-6-1.24c-7,0-11.64,4.47-11.64,12.3,0,7.31,4.21,12,11.47,12a15.45,15.45,0,0,0,6.28-1.24Z"/><path class="cls-2" d="M412.36,79.91c.09,5.27,3.46,7.44,7.35,7.44a14.06,14.06,0,0,0,5.93-1.11l.67,2.79a17.34,17.34,0,0,1-7.13,1.33c-6.6,0-10.54-4.34-10.54-10.8S412.45,68,418.69,68c7,0,8.86,6.15,8.86,10.09a13.12,13.12,0,0,1-.14,1.81Zm11.42-2.78c.05-2.48-1-6.33-5.4-6.33-3.94,0-5.66,3.63-6,6.33Z"/><path class="cls-2" d="M432.37,75.18c0-2.53,0-4.69-.18-6.69h3.41l.14,4.21h.17A6.43,6.43,0,0,1,441.85,68a4.1,4.1,0,0,1,1.1.13v3.67a5.76,5.76,0,0,0-1.33-.13c-2.74,0-4.69,2.08-5.22,5a10.78,10.78,0,0,0-.18,1.82V89.92h-3.85Z"/><path class="cls-2" d="M461.68,89.12a14.4,14.4,0,0,1-6.16,1.24c-6.46,0-10.66-4.38-10.66-10.93s4.51-11.38,11.51-11.38a13.07,13.07,0,0,1,5.4,1.11l-.89,3a9,9,0,0,0-4.51-1c-4.92,0-7.57,3.63-7.57,8.1,0,5,3.18,8,7.43,8A11,11,0,0,0,461,86.2Z"/><path class="cls-2" d="M478.1,89.92l-.31-2.7h-.13a8,8,0,0,1-6.55,3.19c-4.34,0-6.56-3.06-6.56-6.16,0-5.18,4.61-8,12.89-8v-.44c0-1.77-.49-5-4.87-5a10.6,10.6,0,0,0-5.58,1.6l-.89-2.57a13.31,13.31,0,0,1,7-1.9c6.55,0,8.15,4.47,8.15,8.76v8a30.83,30.83,0,0,0,.35,5.14ZM477.52,79c-4.24-.08-9.07.67-9.07,4.83a3.45,3.45,0,0,0,3.67,3.72,5.33,5.33,0,0,0,5.18-3.59,3.86,3.86,0,0,0,.22-1.24Z"/><path class="cls-2" d="M512.23,89.12a14.38,14.38,0,0,1-6.15,1.24c-6.47,0-10.67-4.38-10.67-10.93s4.51-11.38,11.51-11.38a13,13,0,0,1,5.4,1.11l-.89,3a9,9,0,0,0-4.51-1c-4.92,0-7.57,3.63-7.57,8.1,0,5,3.19,8,7.44,8a11,11,0,0,0,4.78-1.06Z"/><path class="cls-2" d="M521.13,62.47a2.42,2.42,0,0,1-4.83,0A2.37,2.37,0,0,1,518.74,60,2.31,2.31,0,0,1,521.13,62.47Zm-4.34,27.45V68.49h3.9V89.92Z"/><path class="cls-2" d="M546.54,79c0,7.92-5.49,11.38-10.67,11.38-5.8,0-10.27-4.25-10.27-11,0-7.17,4.69-11.37,10.62-11.37C542.38,68,546.54,72.48,546.54,79Zm-17,.22c0,4.69,2.7,8.23,6.51,8.23s6.5-3.49,6.5-8.32c0-3.63-1.81-8.23-6.42-8.23S529.54,75.18,529.54,79.25Zm5.09-20,3.85,6.33h-2.74l-5.4-6.33Z"/><path class="cls-2" d="M579.34,58.49v25.9c0,1.9,0,4.07.18,5.53H576l-.18-3.72h-.09a7.91,7.91,0,0,1-7.3,4.21c-5.18,0-9.16-4.39-9.16-10.89,0-7.13,4.38-11.51,9.6-11.51a7.19,7.19,0,0,1,6.47,3.27h.08V58.49Zm-3.9,18.72a7,7,0,0,0-.17-1.63,5.74,5.74,0,0,0-5.63-4.52c-4,0-6.41,3.54-6.41,8.28,0,4.34,2.12,7.92,6.33,7.92a5.85,5.85,0,0,0,5.71-4.65,6.89,6.89,0,0,0,.17-1.68Z"/><path class="cls-2" d="M590.14,62.47a2.41,2.41,0,0,1-4.82,0A2.37,2.37,0,0,1,587.75,60,2.31,2.31,0,0,1,590.14,62.47ZM585.8,89.92V68.49h3.9V89.92Z"/><path class="cls-2" d="M620.82,89.12a14.4,14.4,0,0,1-6.16,1.24C608.2,90.36,604,86,604,79.43s4.51-11.38,11.51-11.38a13.07,13.07,0,0,1,5.4,1.11l-.89,3a9,9,0,0,0-4.51-1c-4.92,0-7.57,3.63-7.57,8.1,0,5,3.18,8,7.43,8a11,11,0,0,0,4.78-1.06Z"/><path class="cls-2" d="M643.31,84.08c0,2.21,0,4.16.17,5.84H640l-.22-3.5h-.09a8.06,8.06,0,0,1-7.08,4c-3.37,0-7.4-1.86-7.4-9.39V68.49h3.9V80.36c0,4.07,1.24,6.81,4.78,6.81a5.47,5.47,0,0,0,5.49-5.53V68.49h3.9Z"/><path class="cls-2" d="M654.11,62.47a2.42,2.42,0,0,1-4.83,0A2.37,2.37,0,0,1,651.72,60,2.31,2.31,0,0,1,654.11,62.47Zm-4.34,27.45V68.49h3.89V89.92Z"/><path class="cls-2" d="M669.51,58.49h3.9V71.86h.09a7.2,7.2,0,0,1,2.78-2.75,8.11,8.11,0,0,1,4-1.1c2.88,0,7.48,1.77,7.48,9.16V89.92h-3.9V77.61c0-3.45-1.28-6.37-5-6.37a5.6,5.6,0,0,0-5.23,3.89,4.75,4.75,0,0,0-.26,1.86V89.92h-3.9Z"/><path class="cls-2" d="M705.94,89.92l-.31-2.7h-.13A8,8,0,0,1,699,90.41c-4.34,0-6.55-3.06-6.55-6.16,0-5.18,4.6-8,12.88-8v-.44c0-1.77-.49-5-4.87-5a10.65,10.65,0,0,0-5.58,1.6L694,69.91a13.28,13.28,0,0,1,7-1.9c6.55,0,8.14,4.47,8.14,8.76v8a30.83,30.83,0,0,0,.35,5.14ZM705.37,79c-4.25-.08-9.08.67-9.08,4.83A3.45,3.45,0,0,0,700,87.53a5.33,5.33,0,0,0,5.18-3.59,4.15,4.15,0,0,0,.22-1.24Z"/><path class="cls-2" d="M719.75,62.47a2.41,2.41,0,0,1-4.82,0A2.37,2.37,0,0,1,717.36,60,2.31,2.31,0,0,1,719.75,62.47Zm-4.33,27.45V68.49h3.89V89.92Z"/><path class="cls-2" d="M735,89.92c.09-1.46.18-3.63.18-5.53V58.49H739V72h.09A8,8,0,0,1,746.4,68c5.32,0,9.08,4.42,9,10.93,0,7.66-4.82,11.47-9.6,11.47a7.63,7.63,0,0,1-7.17-4h-.14l-.17,3.54Zm4-8.59a7.16,7.16,0,0,0,.18,1.42A6,6,0,0,0,745,87.31c4.07,0,6.51-3.32,6.51-8.24,0-4.29-2.22-8-6.38-8a6.21,6.21,0,0,0-5.93,4.78,7.52,7.52,0,0,0-.22,1.59Z"/><path class="cls-2" d="M764.68,62.47a2.29,2.29,0,0,1-2.47,2.39,2.31,2.31,0,0,1-2.35-2.39A2.37,2.37,0,0,1,762.29,60,2.3,2.3,0,0,1,764.68,62.47Zm-4.33,27.45V68.49h3.89V89.92Z"/><path class="cls-2" d="M770.17,85.94a10.24,10.24,0,0,0,5.14,1.54c2.83,0,4.16-1.41,4.16-3.18s-1.11-2.88-4-3.94c-3.86-1.38-5.67-3.5-5.67-6.07,0-3.45,2.79-6.28,7.39-6.28a10.81,10.81,0,0,1,5.27,1.32l-1,2.84a8.35,8.35,0,0,0-4.39-1.24c-2.3,0-3.58,1.33-3.58,2.92,0,1.77,1.28,2.57,4.07,3.63,3.72,1.42,5.62,3.28,5.62,6.46,0,3.77-2.92,6.42-8,6.42a12.14,12.14,0,0,1-6-1.46Z"/><path class="cls-2" d="M807.62,79c0,7.92-5.48,11.38-10.66,11.38-5.8,0-10.27-4.25-10.27-11,0-7.17,4.69-11.37,10.62-11.37C803.46,68,807.62,72.48,807.62,79Zm-17,.22c0,4.69,2.7,8.23,6.5,8.23s6.51-3.49,6.51-8.32c0-3.63-1.81-8.23-6.42-8.23S790.63,75.18,790.63,79.25Z"/><path class="cls-2" d="M831,68.49c-.09,1.55-.18,3.28-.18,5.89V86.82c0,4.91-1,7.92-3.05,9.78s-5.1,2.57-7.8,2.57a13.81,13.81,0,0,1-7.12-1.77l1-3a12,12,0,0,0,6.29,1.69c4,0,6.9-2.08,6.9-7.48v-2.4h-.09a7.62,7.62,0,0,1-6.81,3.59c-5.31,0-9.12-4.51-9.12-10.45,0-7.26,4.73-11.37,9.65-11.37a7.11,7.11,0,0,1,6.68,3.71h.09l.18-3.23ZM827,77a5.72,5.72,0,0,0-.22-1.77,5.61,5.61,0,0,0-5.45-4.12c-3.72,0-6.37,3.14-6.37,8.1,0,4.21,2.12,7.7,6.33,7.7a5.69,5.69,0,0,0,5.4-4A6.81,6.81,0,0,0,827,80.8Z"/><path class="cls-2" d="M837,74.29c0-2.21,0-4-.18-5.8h3.45l.22,3.54h.09a7.9,7.9,0,0,1,7.09-4c3,0,7.57,1.77,7.57,9.12V89.92h-3.9V77.57c0-3.45-1.28-6.33-5-6.33a5.72,5.72,0,0,0-5.49,5.8V89.92H837Z"/><path class="cls-2" d="M881,79c0,7.92-5.49,11.38-10.67,11.38-5.8,0-10.27-4.25-10.27-11C860,72.21,864.73,68,870.66,68,876.81,68,881,72.48,881,79Zm-17,.22c0,4.69,2.7,8.23,6.5,8.23S877,84,877,79.16c0-3.63-1.81-8.23-6.42-8.23S864,75.18,864,79.25Z"/><path class="cls-2" d="M1069.39,183.8h-11.6v10.75h12.93v3.23h-16.78V168h16.11v3.23h-12.26v9.43h11.6Zm-8.06-22.63,4.12,5.18h-3.19l-5.62-5.18Z"/><path class="cls-2" d="M1084.44,193.8a10.24,10.24,0,0,0,5.13,1.55c2.84,0,4.17-1.42,4.17-3.19s-1.11-2.88-4-3.94c-3.85-1.37-5.67-3.5-5.67-6.06,0-3.46,2.79-6.29,7.4-6.29a10.7,10.7,0,0,1,5.27,1.33l-1,2.83a8.34,8.34,0,0,0-4.38-1.24c-2.3,0-3.59,1.33-3.59,2.92,0,1.77,1.29,2.57,4.08,3.63,3.71,1.42,5.62,3.28,5.62,6.47,0,3.76-2.92,6.42-8,6.42a12.32,12.32,0,0,1-6-1.46Z"/><path class="cls-2" d="M1104.67,187.78c.09,5.27,3.45,7.44,7.35,7.44a14.06,14.06,0,0,0,5.93-1.11l.66,2.79a17.29,17.29,0,0,1-7.12,1.33c-6.6,0-10.54-4.34-10.54-10.81s3.81-11.55,10-11.55c7,0,8.85,6.15,8.85,10.09a15.81,15.81,0,0,1-.13,1.82Zm11.42-2.79c0-2.48-1-6.33-5.4-6.33-3.94,0-5.67,3.63-6,6.33Z"/><path class="cls-2" d="M1124.68,182.16c0-2.22,0-4-.18-5.8h3.41l.18,3.45h.13a7.38,7.38,0,0,1,6.73-3.94,6.33,6.33,0,0,1,6.06,4.29h.09a9,9,0,0,1,2.39-2.78,7.29,7.29,0,0,1,4.74-1.51c2.83,0,7,1.86,7,9.3v12.61h-3.81V185.65c0-4.11-1.51-6.59-4.65-6.59a5,5,0,0,0-4.6,3.54,6.33,6.33,0,0,0-.31,2v13.23h-3.81V185c0-3.41-1.5-5.89-4.47-5.89a5.34,5.34,0,0,0-4.83,3.89,5.43,5.43,0,0,0-.31,1.91v12.92h-3.8Z"/><path class="cls-2" d="M1161.6,183.35c0-2.74-.09-5-.18-7h3.5l.17,3.67h.09a8.44,8.44,0,0,1,7.62-4.16c5.18,0,9.07,4.38,9.07,10.89,0,7.7-4.69,11.51-9.74,11.51a7.51,7.51,0,0,1-6.59-3.36h-.09v11.64h-3.85Zm3.85,5.71a8.69,8.69,0,0,0,.18,1.6,6,6,0,0,0,5.84,4.56c4.12,0,6.51-3.37,6.51-8.28,0-4.3-2.26-8-6.38-8a6.23,6.23,0,0,0-5.89,4.83,6.37,6.37,0,0,0-.26,1.59Z"/><path class="cls-2" d="M1186.78,166.35h3.9v31.43h-3.9Z"/><path class="cls-2" d="M1201.57,170.34a2.42,2.42,0,0,1-4.83,0,2.38,2.38,0,0,1,2.44-2.44A2.32,2.32,0,0,1,1201.57,170.34Zm-4.34,27.44V176.36h3.9v21.42Z"/><path class="cls-2" d="M1222.86,197a14.35,14.35,0,0,1-6.15,1.24c-6.46,0-10.67-4.39-10.67-10.94s4.52-11.37,11.51-11.37a13.05,13.05,0,0,1,5.4,1.1l-.88,3a9.05,9.05,0,0,0-4.52-1c-4.91,0-7.57,3.63-7.57,8.11,0,4.95,3.19,8,7.44,8a11.19,11.19,0,0,0,4.78-1.06Z"/><path class="cls-2" d="M1229.33,187.78c.08,5.27,3.45,7.44,7.34,7.44a14.11,14.11,0,0,0,5.94-1.11l.66,2.79a17.34,17.34,0,0,1-7.13,1.33c-6.59,0-10.53-4.34-10.53-10.81s3.8-11.55,10.05-11.55c7,0,8.85,6.15,8.85,10.09a15.81,15.81,0,0,1-.13,1.82Zm11.42-2.79c0-2.48-1-6.33-5.4-6.33-3.94,0-5.67,3.63-6,6.33Z"/><rect class="cls-1" x="1207.09" y="230.32" width="1.34" height="28.53"/><rect class="cls-1" x="1203.4" y="229.65" width="8.71" height="1.34"/><rect class="cls-1" x="1203.4" y="258.18" width="8.71" height="1.34"/><rect class="cls-1" x="396.73" y="125.5" width="1.34" height="28.53"/><rect class="cls-1" x="393.05" y="124.83" width="8.71" height="1.34"/><rect class="cls-1" x="393.05" y="153.36" width="8.71" height="1.34"/><polygon class="cls-2" points="327.02 101.21 271.38 120.09 284.13 132.84 263.13 153.84 274.4 165.1 295.4 144.1 308.14 156.85 327.02 101.21"/><polygon class="cls-2" points="1349.43 258.85 1368.31 314.49 1381.06 301.74 1402.05 322.73 1413.32 311.47 1392.32 290.47 1405.07 277.72 1349.43 258.85"/></g></g></svg>