<svg xmlns="http://www.w3.org/2000/svg" viewBox="0 0 1600 400"><defs><style>.cls-1{fill:#d8e4ff;}.cls-2{fill:#31e981;}.cls-3{fill:#00120b;}</style></defs><title>carosello3</title><g id="Livello_2" data-name="Livello 2"><g id="Livello_1-2" data-name="Livello 1"><rect class="cls-1" width="1600" height="400"/><path class="cls-2" d="M1419.89,175.72c-30.66-33.58-43.41-64.54-18.31-91.23,10.68-11.35,43.65-21,86.4-37.44,26.55-10.2,58-27.68,81.46-47H396.22c-5,37.49-15.27,73.31-47,104.65-16,15.82-29.29,27.32-70.85,40.32C201.52,169,97.1,211.27,48,277.45,23.14,310.93,8.45,354.26,3.35,400H287.9a78.89,78.89,0,0,0,18-14.07C335.31,355,319.67,319.55,349,299.69c30.42-20.57,80.82-5.32,110.88,18.48,24.66,19.52,46.35,53.29,49,81.83h952c30.75-26.1,54.48-56.24,50.14-85.11C1504.36,270.56,1480.92,242.56,1419.89,175.72Z"/><path class="cls-3" d="M1355.5,121.93c9.16-72,131.19-91.77,179.36-121.93H444.52c-27.16,57.35-52.4,104.63-86.65,136.33-45.21,41.84-49.33,38.56-111.17,63.36-74.63,29.94-150.76,61.79-187.2,129.6C47.58,351.48,40.81,376,37.91,400H259.17a96.85,96.85,0,0,0,12.47-11c37-39,17.32-83.61,54.32-108.63,38.32-25.92,101.82-6.7,139.68,23.28,29.15,23.08,55,62,60.8,96.38h839.07c68-36.48,108.66-73.71,108.07-108.15C1472.55,231.7,1345.91,197.35,1355.5,121.93Z"/><path class="cls-1" d="M525.31,118.26h6.48a4.83,4.83,0,0,0,4.83-4.83V106a4.83,4.83,0,0,0-4.83-4.83H516c-6.39,0-11.58,14.4-11.58,32.16s5.19,32.16,11.58,32.16h15.76a4.84,4.84,0,0,0,4.83-4.84v-7.43a4.84,4.84,0,0,0-4.83-4.84h-6.48a3.75,3.75,0,0,1-3.72-3.23,86.65,86.65,0,0,1,0-23.64A3.75,3.75,0,0,1,525.31,118.26Z"/><path class="cls-1" d="M1074.85,44.83h-55.59a12.87,12.87,0,0,0-12.87,12.86V81.35a12.87,12.87,0,0,0,12.87,12.87h55.59a12.87,12.87,0,0,0,12.86-12.87V57.69A12.86,12.86,0,0,0,1074.85,44.83ZM1068,59.92c-19.28,3.07-29.5,22.63-29.6,22.82a2.48,2.48,0,0,1-2.23,1.37,2.22,2.22,0,0,1-.57-.07,2.49,2.49,0,0,1-1.94-2.39c-.07-3.61-1.37-6.32-3.87-8.06a9.94,9.94,0,0,0-3.71-1.58,2.51,2.51,0,1,1,.69-5,14.65,14.65,0,0,1,5.88,2.43,13.51,13.51,0,0,1,4.67,5.61,58.81,58.81,0,0,1,5-6,51.08,51.08,0,0,1,10.34-8.57,39.47,39.47,0,0,1,14.6-5.51,2.51,2.51,0,0,1,.79,5Z"/><path class="cls-1" d="M1090.47,151.24h-53.81a5.07,5.07,0,0,0-5.07,5.07v79.18a5.08,5.08,0,0,0,5.07,5.08h53.81a5.08,5.08,0,0,0,5.08-5.08V156.31A5.07,5.07,0,0,0,1090.47,151.24ZM1072.57,196a1.88,1.88,0,0,1-1.88,1.88h-31.18a1.88,1.88,0,0,1-1.88-1.88v-.2a1.88,1.88,0,0,1,1.88-1.88h31.18a1.88,1.88,0,0,1,1.88,1.88Zm0-7.54a1.88,1.88,0,0,1-1.88,1.88h-31.18a1.88,1.88,0,0,1-1.88-1.88v-.19a1.88,1.88,0,0,1,1.88-1.88h31.18a1.88,1.88,0,0,1,1.88,1.88Zm0-7.53a1.88,1.88,0,0,1-1.88,1.88h-31.18a1.88,1.88,0,0,1-1.88-1.88v-.19a1.88,1.88,0,0,1,1.88-1.88h31.18a1.88,1.88,0,0,1,1.88,1.88Zm0-7.54a1.88,1.88,0,0,1-1.88,1.88h-31.18a1.88,1.88,0,0,1-1.88-1.88v-.19a1.88,1.88,0,0,1,1.88-1.88h31.18a1.88,1.88,0,0,1,1.88,1.88Zm0-7.53a1.88,1.88,0,0,1-1.88,1.88h-31.18a1.88,1.88,0,0,1-1.88-1.88v-.19a1.88,1.88,0,0,1,1.88-1.88h31.18a1.88,1.88,0,0,1,1.88,1.88ZM1089.51,196a1.88,1.88,0,0,1-1.88,1.88h-8.19a1.88,1.88,0,0,1-1.88-1.88v-.2a1.88,1.88,0,0,1,1.88-1.88h8.19a1.88,1.88,0,0,1,1.88,1.88Zm0-7.54a1.88,1.88,0,0,1-1.88,1.88h-8.19a1.88,1.88,0,0,1-1.88-1.88v-.19a1.88,1.88,0,0,1,1.88-1.88h8.19a1.88,1.88,0,0,1,1.88,1.88Zm0-7.53a1.88,1.88,0,0,1-1.88,1.88h-8.19a1.88,1.88,0,0,1-1.88-1.88v-.19a1.88,1.88,0,0,1,1.88-1.88h8.19a1.88,1.88,0,0,1,1.88,1.88Zm0-7.54a1.88,1.88,0,0,1-1.88,1.88h-8.19a1.88,1.88,0,0,1-1.88-1.88v-.19a1.88,1.88,0,0,1,1.88-1.88h8.19a1.88,1.88,0,0,1,1.88,1.88Zm0-7.53a1.88,1.88,0,0,1-1.88,1.88h-8.19a1.88,1.88,0,0,1-1.88-1.88v-.19a1.88,1.88,0,0,1,1.88-1.88h8.19a1.88,1.88,0,0,1,1.88,1.88Z"/><path class="cls-2" d="M721.26,73.52l-3,9h-3.81L724.18,54h4.44l9.72,28.5h-3.93l-3-9Zm9.35-2.88-2.8-8.2c-.63-1.86-1-3.55-1.48-5.2h-.08c-.42,1.69-.89,3.42-1.44,5.16L722,70.64Z"/><path class="cls-2" d="M756.48,81.72a13.65,13.65,0,0,1-5.88,1.19c-6.17,0-10.19-4.19-10.19-10.45s4.32-10.87,11-10.87a12.41,12.41,0,0,1,5.16,1.06l-.85,2.88a8.58,8.58,0,0,0-4.31-1c-4.7,0-7.23,3.47-7.23,7.74,0,4.74,3,7.66,7.1,7.66a10.5,10.5,0,0,0,4.57-1Z"/><path class="cls-2" d="M775.17,81.72a13.65,13.65,0,0,1-5.88,1.19c-6.17,0-10.19-4.19-10.19-10.45s4.31-10.87,11-10.87a12.36,12.36,0,0,1,5.15,1.06l-.84,2.88a8.58,8.58,0,0,0-4.31-1c-4.7,0-7.24,3.47-7.24,7.74,0,4.74,3,7.66,7.11,7.66a10.53,10.53,0,0,0,4.57-1Z"/><path class="cls-2" d="M781.34,72.93c.09,5,3.3,7.1,7,7.1A13.34,13.34,0,0,0,794,79l.63,2.67a16.6,16.6,0,0,1-6.81,1.27c-6.3,0-10.06-4.15-10.06-10.32s3.64-11,9.6-11c6.68,0,8.46,5.88,8.46,9.64a14.5,14.5,0,0,1-.13,1.74Zm10.91-2.67c0-2.37-1-6-5.16-6-3.76,0-5.41,3.46-5.71,6Z"/><path class="cls-2" d="M804.93,56.14V62h5.33v2.83h-5.33v11c0,2.53.72,4,2.8,4a8.1,8.1,0,0,0,2.15-.25l.17,2.79a9,9,0,0,1-3.3.51,5.12,5.12,0,0,1-4-1.57c-1.06-1.1-1.44-2.92-1.44-5.33V64.85h-3.17V62h3.17V57.11Z"/><path class="cls-2" d="M818.93,56.14V62h5.33v2.83h-5.33v11c0,2.53.72,4,2.79,4a8.25,8.25,0,0,0,2.16-.25l.17,2.79a9,9,0,0,1-3.3.51,5.14,5.14,0,0,1-4-1.57c-1.06-1.1-1.44-2.92-1.44-5.33V64.85h-3.17V62h3.17V57.11Z"/><path class="cls-2" d="M839.77,82.48l-.29-2.58h-.13a7.62,7.62,0,0,1-6.26,3c-4.14,0-6.26-2.92-6.26-5.88,0-4.95,4.4-7.65,12.31-7.61V69c0-1.7-.46-4.74-4.65-4.74a10.22,10.22,0,0,0-5.33,1.52l-.85-2.45A12.74,12.74,0,0,1,835,61.55c6.26,0,7.78,4.27,7.78,8.37v7.66a28.12,28.12,0,0,0,.34,4.9ZM839.23,72c-4.06-.09-8.67.63-8.67,4.61a3.29,3.29,0,0,0,3.51,3.55A5.08,5.08,0,0,0,839,76.77a3.78,3.78,0,0,0,.22-1.18Z"/><path class="cls-2" d="M861.93,56.27a2.31,2.31,0,0,1-4.61,0,2.27,2.27,0,0,1,2.32-2.33A2.22,2.22,0,0,1,861.93,56.27Zm-4.15,26.21V62h3.73V82.48Z"/><path class="cls-2" d="M867.68,52.46h3.72v30h-3.72Z"/><path class="cls-2" d="M886.62,52.46h3.72v30h-3.72Z"/><path class="cls-2" d="M907.93,82.48l-.3-2.58h-.12a7.62,7.62,0,0,1-6.26,3C897.1,83,895,80,895,77.07c0-4.95,4.4-7.65,12.31-7.61V69c0-1.7-.47-4.74-4.66-4.74a10.16,10.16,0,0,0-5.32,1.52l-.85-2.45a12.68,12.68,0,0,1,6.72-1.82c6.26,0,7.78,4.27,7.78,8.37v7.66a29.13,29.13,0,0,0,.34,4.9ZM907.38,72c-4.06-.09-8.67.63-8.67,4.61a3.29,3.29,0,0,0,3.51,3.55,5.09,5.09,0,0,0,4.95-3.43,3.76,3.76,0,0,0,.21-1.18Z"/><path class="cls-2" d="M918.08,62l4,11.5a51.06,51.06,0,0,1,1.65,5.24h.13c.46-1.69,1.06-3.38,1.73-5.24l4-11.5h3.89l-8,20.46h-3.55L914.1,62Z"/><path class="cls-2" d="M955.07,72.08c0,7.57-5.24,10.87-10.19,10.87-5.54,0-9.81-4.06-9.81-10.53,0-6.85,4.48-10.87,10.15-10.87C951.1,61.55,955.07,65.82,955.07,72.08Zm-16.23.21c0,4.48,2.58,7.87,6.21,7.87s6.22-3.34,6.22-8c0-3.47-1.74-7.87-6.13-7.87S938.84,68.4,938.84,72.29Z"/><path class="cls-2" d="M959.76,68.4c0-2.41,0-4.48-.16-6.38h3.25l.13,4h.17a6.15,6.15,0,0,1,5.66-4.48,3.8,3.8,0,0,1,1.06.13v3.51a5.28,5.28,0,0,0-1.27-.13c-2.62,0-4.48,2-5,4.78a11,11,0,0,0-.17,1.73V82.48h-3.68Z"/><path class="cls-2" d="M991.69,72.08c0,7.57-5.24,10.87-10.19,10.87-5.54,0-9.81-4.06-9.81-10.53,0-6.85,4.48-10.87,10.15-10.87C987.71,61.55,991.69,65.82,991.69,72.08Zm-16.24.21c0,4.48,2.58,7.87,6.22,7.87s6.21-3.34,6.21-8c0-3.47-1.73-7.87-6.13-7.87S975.45,68.4,975.45,72.29Z"/><path class="cls-2" d="M590.22,131.27c-.21-4-.46-8.76-.42-12.31h-.13c-1,3.34-2.15,6.89-3.59,10.83l-5,13.82h-2.79L573.65,130c-1.36-4-2.5-7.7-3.3-11.08h-.09c-.08,3.55-.29,8.33-.55,12.6L569,143.78h-3.51l2-28.5h4.69L577,129.07c1.18,3.51,2.15,6.64,2.87,9.6H580c.72-2.88,1.73-6,3-9.6l5.08-13.79h4.69l1.78,28.5h-3.6Z"/><path class="cls-2" d="M602.4,134.23c.08,5,3.3,7.1,7,7.1a13.29,13.29,0,0,0,5.66-1.06l.64,2.67a16.6,16.6,0,0,1-6.81,1.27c-6.3,0-10.06-4.15-10.06-10.32s3.63-11,9.59-11c6.69,0,8.46,5.88,8.46,9.64a15,15,0,0,1-.12,1.74Zm10.91-2.67c0-2.37-1-6-5.16-6-3.76,0-5.41,3.46-5.71,6Z"/><path class="cls-2" d="M626,117.44v5.88h5.33v2.83H626v11c0,2.53.72,4,2.79,4a8.71,8.71,0,0,0,2.16-.25l.17,2.79a9,9,0,0,1-3.3.51,5.14,5.14,0,0,1-4-1.57c-1.06-1.1-1.44-2.92-1.44-5.33V126.15h-3.17v-2.83h3.17v-4.91Z"/><path class="cls-2" d="M640,117.44v5.88h5.32v2.83H640v11c0,2.53.71,4,2.79,4a8.55,8.55,0,0,0,2.15-.25l.17,2.79a9,9,0,0,1-3.3.51,5.12,5.12,0,0,1-4-1.57c-1.06-1.1-1.44-2.92-1.44-5.33V126.15h-3.17v-2.83h3.17v-4.91Z"/><path class="cls-2" d="M651.32,134.23c.08,5,3.29,7.1,7,7.1a13.29,13.29,0,0,0,5.66-1.06l.64,2.67a16.64,16.64,0,0,1-6.81,1.27c-6.3,0-10.07-4.15-10.07-10.32s3.64-11,9.6-11c6.68,0,8.46,5.88,8.46,9.64a12.66,12.66,0,0,1-.13,1.74Zm10.91-2.67c0-2.37-1-6-5.16-6-3.77,0-5.42,3.46-5.71,6Z"/><path class="cls-2" d="M674.91,117.44v5.88h5.33v2.83h-5.33v11c0,2.53.72,4,2.79,4a8.71,8.71,0,0,0,2.16-.25l.17,2.79a9.06,9.06,0,0,1-3.3.51,5.14,5.14,0,0,1-4-1.57c-1.06-1.1-1.44-2.92-1.44-5.33V126.15H668.1v-2.83h3.17v-4.91Z"/><path class="cls-2" d="M686.24,134.23c.08,5,3.3,7.1,7,7.1a13.37,13.37,0,0,0,5.67-1.06l.63,2.67a16.6,16.6,0,0,1-6.81,1.27c-6.3,0-10.06-4.15-10.06-10.32s3.63-11,9.6-11c6.68,0,8.45,5.88,8.45,9.64a15,15,0,0,1-.12,1.74Zm10.91-2.67c0-2.37-1-6-5.16-6-3.76,0-5.41,3.46-5.71,6Z"/><path class="cls-2" d="M706.79,123.32l4,11.5a51.06,51.06,0,0,1,1.65,5.24h.13c.47-1.69,1.06-3.38,1.74-5.24l4-11.5h3.89l-8,20.46h-3.56l-7.78-20.46Z"/><path class="cls-2" d="M729.83,117.57a2.31,2.31,0,0,1-4.61,0,2.27,2.27,0,0,1,2.33-2.33A2.21,2.21,0,0,1,729.83,117.57Zm-4.14,26.21V123.32h3.72v20.46Z"/><path class="cls-2" d="M762.22,113.76V138.5c0,1.82,0,3.89.17,5.28h-3.34l-.17-3.55h-.09a7.55,7.55,0,0,1-7,4c-5,0-8.76-4.19-8.76-10.4,0-6.81,4.19-11,9.18-11a6.83,6.83,0,0,1,6.17,3.13h.09V113.76Zm-3.72,17.89a6.46,6.46,0,0,0-.17-1.57,5.47,5.47,0,0,0-5.37-4.31c-3.85,0-6.13,3.38-6.13,7.91,0,4.14,2,7.57,6,7.57a5.6,5.6,0,0,0,5.46-4.44,6.37,6.37,0,0,0,.17-1.61Z"/><path class="cls-2" d="M773.34,114.82a49,49,0,0,1-4,10l-2.37.3a60.66,60.66,0,0,0,2.5-9.94Z"/><path class="cls-2" d="M788,143.78l-.3-2.58h-.13a7.61,7.61,0,0,1-6.25,3.05c-4.15,0-6.26-2.92-6.26-5.88,0-5,4.4-7.65,12.3-7.61v-.42c0-1.7-.46-4.74-4.65-4.74a10.22,10.22,0,0,0-5.33,1.52l-.84-2.45a12.68,12.68,0,0,1,6.72-1.82c6.26,0,7.78,4.27,7.78,8.37v7.66a29.13,29.13,0,0,0,.34,4.9Zm-.55-10.44c-4.06-.09-8.67.63-8.67,4.61a3.29,3.29,0,0,0,3.51,3.55,5.1,5.1,0,0,0,5-3.43,4.07,4.07,0,0,0,.21-1.18Z"/><path class="cls-2" d="M811.6,143a13.65,13.65,0,0,1-5.88,1.19c-6.17,0-10.19-4.19-10.19-10.45s4.32-10.87,11-10.87a12.41,12.41,0,0,1,5.16,1.06l-.85,2.88a8.58,8.58,0,0,0-4.31-1c-4.7,0-7.23,3.47-7.23,7.74,0,4.74,3,7.66,7.1,7.66a10.5,10.5,0,0,0,4.57-1Z"/><path class="cls-2" d="M830.29,143a13.65,13.65,0,0,1-5.88,1.19c-6.17,0-10.19-4.19-10.19-10.45s4.31-10.87,11-10.87a12.41,12.41,0,0,1,5.16,1.06l-.85,2.88a8.58,8.58,0,0,0-4.31-1c-4.7,0-7.23,3.47-7.23,7.74,0,4.74,3,7.66,7.1,7.66a10.53,10.53,0,0,0,4.57-1Z"/><path class="cls-2" d="M852.91,133.38c0,7.57-5.24,10.87-10.19,10.87-5.54,0-9.81-4.06-9.81-10.53,0-6.85,4.48-10.87,10.15-10.87C848.94,122.85,852.91,127.12,852.91,133.38Zm-16.24.21c0,4.48,2.58,7.87,6.22,7.87s6.22-3.34,6.22-8c0-3.47-1.74-7.87-6.13-7.87S836.67,129.7,836.67,133.59Z"/><path class="cls-2" d="M857.6,129.7c0-2.41,0-4.48-.17-6.38h3.26l.13,4H861a6.15,6.15,0,0,1,5.66-4.48,3.85,3.85,0,0,1,1.06.13v3.51a5.28,5.28,0,0,0-1.27-.13c-2.62,0-4.48,2-5,4.78a11,11,0,0,0-.17,1.73v10.91H857.6Z"/><path class="cls-2" d="M888.68,113.76V138.5c0,1.82,0,3.89.17,5.28h-3.34l-.17-3.55h-.08a7.56,7.56,0,0,1-7,4c-4.95,0-8.75-4.19-8.75-10.4,0-6.81,4.18-11,9.17-11a6.85,6.85,0,0,1,6.18,3.13H885V113.76ZM885,131.65a6.46,6.46,0,0,0-.17-1.57,5.47,5.47,0,0,0-5.37-4.31c-3.85,0-6.13,3.38-6.13,7.91,0,4.14,2,7.57,6.05,7.57a5.59,5.59,0,0,0,5.45-4.44,6.37,6.37,0,0,0,.17-1.61Z"/><path class="cls-2" d="M913.37,133.38c0,7.57-5.24,10.87-10.19,10.87-5.54,0-9.81-4.06-9.81-10.53,0-6.85,4.48-10.87,10.15-10.87C909.4,122.85,913.37,127.12,913.37,133.38Zm-16.23.21c0,4.48,2.58,7.87,6.21,7.87s6.22-3.34,6.22-8c0-3.47-1.74-7.87-6.13-7.87S897.14,129.7,897.14,133.59Z"/><path class="cls-2" d="M646.82,201.42a13.09,13.09,0,0,0,6.6,1.86c3.76,0,6-2,6-4.86,0-2.67-1.52-4.19-5.37-5.67-4.65-1.65-7.53-4.06-7.53-8.08,0-4.44,3.68-7.73,9.22-7.73a12.91,12.91,0,0,1,6.3,1.39l-1,3a11.43,11.43,0,0,0-5.41-1.35c-3.89,0-5.37,2.33-5.37,4.27,0,2.66,1.73,4,5.66,5.5,4.82,1.86,7.28,4.18,7.28,8.37,0,4.4-3.26,8.21-10,8.21a14.8,14.8,0,0,1-7.28-1.82Z"/><path class="cls-2" d="M682.89,205.14a13.65,13.65,0,0,1-5.88,1.19c-6.17,0-10.19-4.19-10.19-10.45s4.31-10.87,11-10.87a12.36,12.36,0,0,1,5.15,1.06l-.84,2.88a8.58,8.58,0,0,0-4.31-1c-4.7,0-7.24,3.47-7.24,7.74,0,4.74,3,7.66,7.11,7.66a10.53,10.53,0,0,0,4.57-1Z"/><path class="cls-2" d="M687.24,191.82c0-2.41,0-4.48-.17-6.39h3.26l.13,4h.17a6.13,6.13,0,0,1,5.66-4.48,3.8,3.8,0,0,1,1.06.13v3.51a5.28,5.28,0,0,0-1.27-.13c-2.62,0-4.48,2-5,4.78a11,11,0,0,0-.17,1.73V205.9h-3.68Z"/><path class="cls-2" d="M705.38,179.68a2.31,2.31,0,0,1-4.61,0,2.27,2.27,0,0,1,2.33-2.32A2.2,2.2,0,0,1,705.38,179.68Zm-4.14,26.22V185.43H705V205.9Z"/><path class="cls-2" d="M712.57,185.43l4,11.51c.67,1.86,1.22,3.55,1.65,5.24h.12c.47-1.69,1.06-3.38,1.74-5.24l4-11.51H728l-8,20.47h-3.55l-7.79-20.47Z"/><path class="cls-2" d="M735.61,179.68a2.31,2.31,0,0,1-4.61,0,2.27,2.27,0,0,1,2.33-2.32A2.2,2.2,0,0,1,735.61,179.68Zm-4.14,26.22V185.43h3.72V205.9Z"/><path class="cls-2" d="M767.45,200.32c0,2.11,0,4,.17,5.58h-3.3l-.21-3.34H764a7.71,7.71,0,0,1-6.77,3.81c-3.21,0-7.06-1.78-7.06-9v-12h3.72v11.34c0,3.89,1.18,6.51,4.57,6.51a5.37,5.37,0,0,0,4.9-3.38,5.5,5.5,0,0,0,.34-1.91V185.43h3.72Z"/><path class="cls-2" d="M773.62,191c0-2.11,0-3.84-.17-5.54h3.3l.21,3.39h.09a7.51,7.51,0,0,1,6.76-3.85c2.84,0,7.23,1.69,7.23,8.71V205.9h-3.72V194.1c0-3.29-1.22-6-4.73-6a5.27,5.27,0,0,0-5,3.8,5.36,5.36,0,0,0-.26,1.74v12.3h-3.72Z"/><path class="cls-2" d="M808.42,205.9l-.3-2.58H808a7.62,7.62,0,0,1-6.26,3.05c-4.15,0-6.26-2.92-6.26-5.88,0-5,4.4-7.66,12.31-7.61v-.43c0-1.69-.47-4.73-4.66-4.73a10.16,10.16,0,0,0-5.32,1.52l-.85-2.45a12.68,12.68,0,0,1,6.72-1.82c6.26,0,7.78,4.27,7.78,8.37V201a29.13,29.13,0,0,0,.34,4.9Zm-.55-10.44c-4.06-.09-8.67.63-8.67,4.61a3.29,3.29,0,0,0,3.51,3.55,5.08,5.08,0,0,0,4.95-3.43,3.76,3.76,0,0,0,.21-1.18Z"/><path class="cls-2" d="M826.43,191.82c0-2.41,0-4.48-.17-6.39h3.26l.12,4h.17a6.14,6.14,0,0,1,5.67-4.48,3.85,3.85,0,0,1,1.06.13v3.51a5.28,5.28,0,0,0-1.27-.13c-2.62,0-4.48,2-5,4.78a9.94,9.94,0,0,0-.17,1.73V205.9h-3.68Z"/><path class="cls-2" d="M841.9,196.34c.09,5,3.3,7.11,7,7.11a13.46,13.46,0,0,0,5.67-1.06l.64,2.67a16.68,16.68,0,0,1-6.81,1.27c-6.3,0-10.07-4.15-10.07-10.32s3.64-11,9.6-11c6.68,0,8.46,5.88,8.46,9.64a14.3,14.3,0,0,1-.13,1.73Zm10.92-2.66c0-2.37-1-6.05-5.16-6.05-3.77,0-5.42,3.47-5.71,6.05Z"/><path class="cls-2" d="M875.6,205.14a13.59,13.59,0,0,1-5.87,1.19c-6.18,0-10.19-4.19-10.19-10.45s4.31-10.87,11-10.87a12.41,12.41,0,0,1,5.16,1.06l-.85,2.88a8.55,8.55,0,0,0-4.31-1c-4.69,0-7.23,3.47-7.23,7.74,0,4.74,3,7.66,7.1,7.66a10.5,10.5,0,0,0,4.57-1Z"/><path class="cls-2" d="M881.78,196.34c.08,5,3.29,7.11,7,7.11a13.44,13.44,0,0,0,5.66-1.06l.64,2.67a16.64,16.64,0,0,1-6.81,1.27c-6.3,0-10.07-4.15-10.07-10.32s3.64-11,9.6-11c6.68,0,8.46,5.88,8.46,9.64a12.49,12.49,0,0,1-.13,1.73Zm10.91-2.66c0-2.37-1-6.05-5.16-6.05-3.77,0-5.42,3.47-5.71,6.05Z"/><path class="cls-2" d="M900.89,191c0-2.11,0-3.84-.17-5.54H904l.21,3.39h.08a7.52,7.52,0,0,1,6.77-3.85c2.83,0,7.23,1.69,7.23,8.71V205.9h-3.72V194.1c0-3.29-1.23-6-4.74-6a5.29,5.29,0,0,0-5,3.8,5.37,5.37,0,0,0-.25,1.74v12.3h-3.72Z"/><path class="cls-2" d="M923.84,202.1a9.76,9.76,0,0,0,4.91,1.48c2.71,0,4-1.36,4-3.05s-1.05-2.75-3.8-3.76c-3.68-1.31-5.41-3.34-5.41-5.8,0-3.29,2.66-6,7.06-6a10.17,10.17,0,0,1,5,1.27l-.93,2.71a7.92,7.92,0,0,0-4.19-1.19c-2.2,0-3.42,1.27-3.42,2.79,0,1.69,1.22,2.45,3.89,3.47,3.55,1.35,5.37,3.13,5.37,6.17,0,3.6-2.79,6.14-7.65,6.14a11.64,11.64,0,0,1-5.76-1.4Z"/><path class="cls-2" d="M945.24,179.68a2.31,2.31,0,0,1-4.61,0,2.26,2.26,0,0,1,2.33-2.32A2.2,2.2,0,0,1,945.24,179.68ZM941.1,205.9V185.43h3.72V205.9Z"/><path class="cls-2" d="M969.51,195.5c0,7.57-5.24,10.87-10.19,10.87-5.54,0-9.81-4.06-9.81-10.53C949.51,189,954,185,959.66,185,965.54,185,969.51,189.24,969.51,195.5Zm-16.24.21c0,4.48,2.58,7.87,6.22,7.87s6.21-3.34,6.21-8c0-3.47-1.73-7.87-6.13-7.87S953.27,191.82,953.27,195.71Z"/><path class="cls-2" d="M974.2,191c0-2.11,0-3.84-.17-5.54h3.3l.21,3.39h.09a7.51,7.51,0,0,1,6.76-3.85c2.84,0,7.23,1.69,7.23,8.71V205.9H987.9V194.1c0-3.29-1.22-6-4.73-6a5.27,5.27,0,0,0-5,3.8,5.36,5.36,0,0,0-.26,1.74v12.3H974.2Z"/><path class="cls-2" d="M999.74,196.34c.08,5,3.3,7.11,7,7.11a13.53,13.53,0,0,0,5.67-1.06l.63,2.67a16.6,16.6,0,0,1-6.81,1.27c-6.3,0-10.06-4.15-10.06-10.32s3.63-11,9.6-11c6.68,0,8.45,5.88,8.45,9.64a14.75,14.75,0,0,1-.12,1.73Zm10.91-2.66c0-2.37-1-6.05-5.16-6.05-3.76,0-5.41,3.47-5.71,6.05Z"/><path class="cls-2" d="M644.4,297.11v57.13H637V297.11Z"/><path class="cls-2" d="M657.88,324.32c0-4.24-.08-7.72-.34-11.11h6.61l.43,6.78h.17a15.09,15.09,0,0,1,13.56-7.71c5.68,0,14.5,3.39,14.5,17.46v24.5h-7.46V330.59c0-6.61-2.46-12.12-9.5-12.12a10.94,10.94,0,0,0-10.51,11.1v24.67h-7.46Z"/><path class="cls-2" d="M713.24,301.68a4.62,4.62,0,0,1-9.24,0,4.55,4.55,0,0,1,4.66-4.66A4.43,4.43,0,0,1,713.24,301.68Zm-8.31,52.56v-41h7.46v41Z"/><path class="cls-2" d="M720.1,349.92l18.57-24.16c1.78-2.2,3.47-4.15,5.34-6.36v-.17H721.8v-6h31.28l-.09,4.67L734.68,341.7c-1.69,2.28-3.39,4.32-5.25,6.44v.17h24v5.93H720.1Z"/><path class="cls-2" d="M769.36,301.68a4.63,4.63,0,0,1-9.25,0,4.55,4.55,0,0,1,4.67-4.66A4.44,4.44,0,0,1,769.36,301.68Zm-8.31,52.56v-41h7.46v41Z"/><path class="cls-2" d="M803.6,354.24l-.59-5.17h-.26a15.26,15.26,0,0,1-12.54,6.1c-8.31,0-12.55-5.84-12.55-11.78,0-9.92,8.82-15.34,24.67-15.26v-.84c0-3.4-.93-9.5-9.32-9.5a20.53,20.53,0,0,0-10.69,3l-1.69-4.91a25.42,25.42,0,0,1,13.48-3.65c12.54,0,15.6,8.56,15.6,16.79v15.34a58.63,58.63,0,0,0,.67,9.83Zm-1.1-20.94c-8.14-.17-17.38,1.28-17.38,9.24,0,4.84,3.22,7.12,7,7.12a10.22,10.22,0,0,0,9.92-6.86,7.9,7.9,0,0,0,.42-2.38Z"/><path class="cls-2" d="M876.84,333.39c0,15.17-10.51,21.78-20.43,21.78-11.1,0-19.66-8.13-19.66-21.1,0-13.74,9-21.79,20.34-21.79C868.88,312.28,876.84,320.84,876.84,333.39Zm-32.55.42c0,9,5.17,15.77,12.46,15.77,7.12,0,12.46-6.7,12.46-15.94,0-6.95-3.47-15.76-12.29-15.76S844.29,326,844.29,333.81Z"/><path class="cls-2" d="M886.25,326c0-4.83-.08-9-.34-12.8h6.53l.26,8.06H893c1.87-5.51,6.36-9,11.36-9a8.45,8.45,0,0,1,2.12.25v7a11.14,11.14,0,0,0-2.54-.25c-5.26,0-9,4-10,9.58a20.81,20.81,0,0,0-.34,3.47v21.87h-7.38Z"/><path class="cls-2" d="M936.27,354.24l-.59-5.17h-.26a15.29,15.29,0,0,1-12.54,6.1c-8.31,0-12.55-5.84-12.55-11.78,0-9.92,8.81-15.34,24.67-15.26v-.84c0-3.4-.93-9.5-9.33-9.5a20.49,20.49,0,0,0-10.68,3l-1.69-4.91a25.38,25.38,0,0,1,13.47-3.65c12.55,0,15.6,8.56,15.6,16.79v15.34a57.52,57.52,0,0,0,.68,9.83Zm-1.1-20.94c-8.14-.17-17.38,1.28-17.38,9.24,0,4.84,3.22,7.12,7,7.12a10.2,10.2,0,0,0,9.92-6.86,7.62,7.62,0,0,0,.43-2.38Z"/><path class="cls-2" d="M953,349.92a5,5,0,0,1,5-5.26c3,0,5,2.21,5,5.26a5,5,0,1,1-10,0Zm2.12-12.12-1.19-40.69H962l-1.19,40.69Z"/></g></g></svg>