<svg xmlns="http://www.w3.org/2000/svg" viewBox="0 0 1600 400"><defs><style>.cls-1{fill:#d8e4ff;}.cls-2{fill:#31e981;}.cls-3{fill:#00120b;}</style></defs><title>carosello1</title><g id="Livello_2" data-name="Livello 2"><g id="Livello_1-2" data-name="Livello 1"><rect class="cls-1" width="1600" height="400"/><path class="cls-2" d="M1372.78,107.12c-34-32.61-57.09-40.91-66.24-72A66.07,66.07,0,0,1,1305.61,0H824.13c-15.61,13-32,24.9-50.29,40.53-38.63,33.06-65.11,16.51-83.68,2.9C668.14,27.3,660,13.13,655.65,0H122.4c-11.65,33.62-20.14,78.78-8.18,127.28,5.38,21.81,16,64.72,49,77.76,20,7.9,40.53,1.83,66.24-5.76,37.88-11.18,39.9-22.39,74.88-34.56,15.76-5.47,76.53-26.6,100.8,0,9.43,10.34,13.64,28.19,8.64,43.2-15.32,46-108.06,38-112.32,66.24-3.25,21.65,50.24,32,95,92.16A226.64,226.64,0,0,1,417.26,400h946.07a103.83,103.83,0,0,1,3.69-45.2c19.8-66.18,81.07-71.88,83.52-123.84C1452.77,183.85,1404.79,137.82,1372.78,107.12ZM1219.36,89c-6.52,14.86-27.86,21-38.84,12.49-8.62-6.64-8.51-20.4-5.55-29.14,3.71-11,14.77-22.42,26.36-20.81C1215.26,53.43,1226.07,73.69,1219.36,89Z"/><path class="cls-3" d="M1407.34,179.12c-15.74-39.86-58.7-35.25-100.8-95C1281.27,48.2,1279.91,22.63,1275.65,0H853.28c-66.66,42.9-91.57,81.76-142.9,72.56C670.07,65.34,649,34.85,629.67,0H184.36c-24.62,12.51-43.58,28-52.86,52.4-1.67,4.4-21,57.56,8.64,92.16,18.52,21.64,46.58,24.83,57.6,25.92,62.81,6.24,82.23-43.95,141.12-46.08,52.27-1.88,111.3,35,115.2,72,4.86,46.09-78.51,65.65-77.76,112.32.62,38.11,56.92,69.3,111.22,91.28h790.33a343.25,343.25,0,0,0,28.69-22.16C1363.29,329.07,1431.24,239.66,1407.34,179.12ZM1231.66,94.88c-10.16,23.13-43.37,32.62-60.48,19.44-13.4-10.33-13.25-31.74-8.64-45.36,5.79-17.1,23-34.91,41-32.4C1225.27,39.58,1242.11,71.11,1231.66,94.88Z"/><path class="cls-2" d="M217.9,326c-17.14-19.43-38.56-31.78-63.36-46.08-47.39-27.32-75.61-30.4-103.68-43.2-15.62-7.12-33.13-18.14-50.86-36V400H252.24C247.07,372.69,236.2,346.75,217.9,326Z"/><path class="cls-3" d="M168.94,311.6c-35.33-23.68-58.93-3.29-106.56-25.92-31.62-15-49.46-37.42-62.38-58.06V400H223.08C215.88,364.75,196.28,329.93,168.94,311.6Z"/><path class="cls-1" d="M907.46,250.64H628.58A12.55,12.55,0,0,1,616,238.11V214.94a12.55,12.55,0,0,1,12.54-12.54H907.46A12.55,12.55,0,0,1,920,214.94v23.17A12.55,12.55,0,0,1,907.46,250.64ZM628.58,204.4A10.55,10.55,0,0,0,618,214.94v23.17a10.55,10.55,0,0,0,10.54,10.54H907.46A10.55,10.55,0,0,0,918,238.11V214.94a10.55,10.55,0,0,0-10.54-10.54Z"/><path class="cls-1" d="M874.84,311.35H661.2a12.56,12.56,0,0,1-12.54-12.54V275.64a12.55,12.55,0,0,1,12.54-12.53H874.84a12.55,12.55,0,0,1,12.54,12.53v23.17A12.55,12.55,0,0,1,874.84,311.35ZM661.2,265.1a10.55,10.55,0,0,0-10.54,10.54v23.17a10.55,10.55,0,0,0,10.54,10.54H874.84a10.55,10.55,0,0,0,10.54-10.54V275.64a10.55,10.55,0,0,0-10.54-10.54Z"/><path class="cls-2" d="M678.26,278.16l-3.48,4.58v.07l5.53-.73v2.49l-5.53-.66V284l3.52,4.4L676,289.7l-2.2-5.13h-.07l-2.39,5.17-2.09-1.32,3.49-4.47v-.08l-5.43.7v-2.49l5.39.69v-.07l-3.45-4.47,2.24-1.28,2.27,5.09h.08l2.23-5.13Z"/><path class="cls-2" d="M693.47,278.16,690,282.74v.07l5.53-.73v2.49l-5.53-.66V284l3.52,4.4-2.31,1.32-2.2-5.13h-.08l-2.38,5.17-2.09-1.32,3.48-4.47v-.08l-5.42.7v-2.49l5.39.69v-.07l-3.45-4.47,2.24-1.28L689,282H689l2.24-5.13Z"/><path class="cls-2" d="M708.68,278.16l-3.48,4.58v.07l5.53-.73v2.49l-5.53-.66V284l3.51,4.4-2.3,1.32-2.2-5.13h-.08l-2.38,5.17-2.09-1.32,3.48-4.47v-.08l-5.42.7v-2.49l5.39.69v-.07l-3.45-4.47L701.9,277l2.27,5.09h.07l2.24-5.13Z"/><path class="cls-2" d="M723.89,278.16l-3.49,4.58v.07l5.54-.73v2.49l-5.54-.66V284l3.52,4.4-2.31,1.32-2.19-5.13h-.08L717,289.74l-2.09-1.32,3.48-4.47v-.08l-5.42.7v-2.49l5.39.69v-.07l-3.45-4.47,2.24-1.28,2.27,5.09h.07l2.24-5.13Z"/><path class="cls-2" d="M739.1,278.16l-3.49,4.58v.07l5.54-.73v2.49l-5.54-.66V284l3.52,4.4-2.31,1.32-2.2-5.13h-.07l-2.38,5.17-2.09-1.32,3.48-4.47v-.08l-5.42.7v-2.49l5.38.69v-.07l-3.44-4.47,2.24-1.28,2.27,5.09h.07l2.24-5.13Z"/><path class="cls-2" d="M754.3,278.16l-3.48,4.58v.07l5.54-.73v2.49l-5.54-.66V284l3.52,4.4L752,289.7l-2.2-5.13h-.07l-2.38,5.17-2.09-1.32,3.48-4.47v-.08l-5.42.7v-2.49l5.38.69v-.07l-3.44-4.47,2.23-1.28L749.8,282h.07l2.24-5.13Z"/><path class="cls-2" d="M769.51,278.16,766,282.74v.07l5.54-.73v2.49l-5.54-.66V284l3.52,4.4-2.31,1.32-2.2-5.13H765l-2.38,5.17-2.09-1.32L764,284v-.08l-5.42.7v-2.49l5.38.69v-.07l-3.44-4.47,2.23-1.28L765,282h.07l2.23-5.13Z"/><rect class="cls-1" x="779.24" y="275.42" width="1.11" height="23.62"/><rect class="cls-1" x="776.19" y="274.86" width="7.21" height="1.11"/><rect class="cls-1" x="776.19" y="298.48" width="7.21" height="1.11"/><circle class="cls-1" cx="768.02" cy="111.67" r="23.01"/><path class="cls-1" d="M768,141.4a48.54,48.54,0,0,0-48.54,48.54h97.08A48.54,48.54,0,0,0,768,141.4Z"/><path class="cls-2" d="M636.26,226.79c0-1.42,0-2.58-.11-3.72h2.19l.11,2.22h.08a4.74,4.74,0,0,1,4.32-2.53,4.06,4.06,0,0,1,3.9,2.76h.06a5.61,5.61,0,0,1,1.53-1.8,4.71,4.71,0,0,1,3-1c1.82,0,4.52,1.19,4.52,6v8.1h-2.44V229c0-2.64-1-4.24-3-4.24a3.23,3.23,0,0,0-3,2.28,3.9,3.9,0,0,0-.2,1.25v8.5h-2.45v-8.25c0-2.18-1-3.78-2.87-3.78a3.43,3.43,0,0,0-3.1,2.51,3.47,3.47,0,0,0-.2,1.22v8.3h-2.44Z"/><path class="cls-2" d="M667.58,236.83l-.2-1.74h-.09a5.1,5.1,0,0,1-4.2,2,3.92,3.92,0,0,1-4.21-3.95c0-3.33,3-5.15,8.27-5.12v-.28a2.83,2.83,0,0,0-3.12-3.18,6.85,6.85,0,0,0-3.59,1l-.56-1.65a8.5,8.5,0,0,1,4.52-1.22c4.2,0,5.23,2.87,5.23,5.63v5.14a19.55,19.55,0,0,0,.22,3.3Zm-.37-7c-2.73-.06-5.83.42-5.83,3.09a2.22,2.22,0,0,0,2.36,2.39,3.42,3.42,0,0,0,3.33-2.3,2.8,2.8,0,0,0,.14-.8Z"/><path class="cls-2" d="M673.66,227.36c0-1.62,0-3-.12-4.29h2.19l.09,2.7h.11a4.12,4.12,0,0,1,3.81-3,3.08,3.08,0,0,1,.71.08v2.36a4.16,4.16,0,0,0-.85-.08,3.5,3.5,0,0,0-3.35,3.21,6.67,6.67,0,0,0-.12,1.16v7.34h-2.47Z"/><path class="cls-2" d="M685.85,219.2a1.55,1.55,0,0,1-3.1,0,1.52,1.52,0,0,1,1.56-1.56A1.49,1.49,0,0,1,685.85,219.2Zm-2.79,17.63V223.07h2.51v13.76Z"/><path class="cls-2" d="M702.16,229.84c0,5.08-3.52,7.3-6.85,7.3-3.72,0-6.59-2.73-6.59-7.08,0-4.6,3-7.3,6.82-7.3S702.16,225.63,702.16,229.84Zm-10.91.14c0,3,1.73,5.28,4.18,5.28s4.18-2.24,4.18-5.34c0-2.33-1.17-5.29-4.13-5.29S691.25,227.36,691.25,230Z"/><path class="cls-2" d="M705.32,227.36c0-1.62,0-3-.12-4.29h2.19l.09,2.7h.11a4.11,4.11,0,0,1,3.81-3,3.08,3.08,0,0,1,.71.08v2.36a4.23,4.23,0,0,0-.85-.08,3.5,3.5,0,0,0-3.36,3.21,6.72,6.72,0,0,0-.11,1.16v7.34h-2.47Z"/><path class="cls-2" d="M726.77,229.84c0,5.08-3.52,7.3-6.85,7.3-3.72,0-6.59-2.73-6.59-7.08,0-4.6,3-7.3,6.82-7.3S726.77,225.63,726.77,229.84Zm-10.91.14c0,3,1.73,5.28,4.18,5.28s4.17-2.24,4.17-5.34c0-2.33-1.16-5.29-4.12-5.29S715.86,227.36,715.86,230Z"/><path class="cls-2" d="M729.58,234.27a6.6,6.6,0,0,0,3.3,1c1.82,0,2.67-.91,2.67-2s-.71-1.85-2.56-2.53c-2.47-.88-3.63-2.25-3.63-3.9,0-2.21,1.79-4,4.74-4a6.94,6.94,0,0,1,3.39.85l-.63,1.82a5.34,5.34,0,0,0-2.81-.8c-1.48,0-2.31.86-2.31,1.88s.83,1.65,2.62,2.33c2.39.91,3.61,2.1,3.61,4.15,0,2.42-1.88,4.12-5.15,4.12a7.81,7.81,0,0,1-3.86-.94Z"/><path class="cls-2" d="M740.84,234.27a6.57,6.57,0,0,0,3.3,1c1.81,0,2.67-.91,2.67-2s-.71-1.85-2.56-2.53c-2.47-.88-3.64-2.25-3.64-3.9,0-2.21,1.79-4,4.75-4a6.93,6.93,0,0,1,3.38.85l-.63,1.82a5.34,5.34,0,0,0-2.81-.8c-1.48,0-2.3.86-2.3,1.88s.82,1.65,2.61,2.33c2.39.91,3.61,2.1,3.61,4.15,0,2.42-1.87,4.12-5.14,4.12a7.85,7.85,0,0,1-3.87-.94Z"/><path class="cls-2" d="M755.22,219.2a1.55,1.55,0,0,1-3.1,0,1.52,1.52,0,0,1,1.56-1.56A1.49,1.49,0,0,1,755.22,219.2Zm-2.79,17.63V223.07h2.5v13.76Z"/><path class="cls-2" d="M771.9,238.65a10.38,10.38,0,0,1-5.06,1.13,8.46,8.46,0,0,1-8.61-8.87c0-5.85,4.06-10.91,10.37-10.91a7.89,7.89,0,0,1,8.27,8.22c0,4.26-2.38,6.76-5.06,6.76a2.11,2.11,0,0,1-2.1-2.5h-.11a4.46,4.46,0,0,1-4,2.5c-1.65,0-3.07-1.34-3.07-3.58a6.72,6.72,0,0,1,6.74-6.74,7.51,7.51,0,0,1,3,.6l-1,5.14c-.43,2.16-.08,3.16.85,3.19,1.45,0,3.07-1.91,3.07-5.2,0-4.13-2.47-7.08-6.87-7.08-4.64,0-8.53,3.66-8.53,9.44,0,4.74,3.1,7.67,7.3,7.67a8.77,8.77,0,0,0,4.29-1Zm-1.56-12.28a4.79,4.79,0,0,0-1.42-.2c-2.51,0-4.52,2.36-4.52,5.12,0,1.25.62,2.15,1.87,2.15,1.65,0,3.16-2.1,3.47-3.86Z"/><path class="cls-2" d="M791.88,223.07c-.06,1-.12,2.1-.12,3.78v8c0,3.15-.62,5.09-2,6.28a7.29,7.29,0,0,1-5,1.65,8.88,8.88,0,0,1-4.58-1.14l.63-1.9a7.84,7.84,0,0,0,4,1.08c2.55,0,4.43-1.34,4.43-4.81v-1.53h-.06a4.89,4.89,0,0,1-4.37,2.3c-3.42,0-5.86-2.9-5.86-6.71,0-4.66,3-7.3,6.2-7.3a4.58,4.58,0,0,1,4.29,2.39h.06l.11-2.08Zm-2.59,5.43a3.67,3.67,0,0,0-.14-1.14,3.61,3.61,0,0,0-3.5-2.64c-2.38,0-4.09,2-4.09,5.2,0,2.7,1.36,5,4.06,5a3.66,3.66,0,0,0,3.47-2.56,4.44,4.44,0,0,0,.2-1.34Z"/><path class="cls-2" d="M795.74,226.79c0-1.42,0-2.58-.11-3.72h2.19l.11,2.22H798a4.74,4.74,0,0,1,4.32-2.53,4.06,4.06,0,0,1,3.9,2.76h0a5.76,5.76,0,0,1,1.54-1.8,4.71,4.71,0,0,1,3-1c1.82,0,4.52,1.19,4.52,6v8.1h-2.44V229c0-2.64-1-4.24-3-4.24a3.23,3.23,0,0,0-3,2.28,3.9,3.9,0,0,0-.2,1.25v8.5h-2.45v-8.25c0-2.18-1-3.78-2.87-3.78a3.43,3.43,0,0,0-3.1,2.51,3.47,3.47,0,0,0-.2,1.22v8.3h-2.44Z"/><path class="cls-2" d="M827.06,236.83l-.2-1.74h-.09a5.1,5.1,0,0,1-4.2,2,3.92,3.92,0,0,1-4.21-3.95c0-3.33,3-5.15,8.27-5.12v-.28a2.83,2.83,0,0,0-3.12-3.18,6.85,6.85,0,0,0-3.59,1l-.56-1.65a8.49,8.49,0,0,1,4.51-1.22c4.21,0,5.24,2.87,5.24,5.63v5.14a19.55,19.55,0,0,0,.22,3.3Zm-.37-7c-2.73-.06-5.83.42-5.83,3.09a2.22,2.22,0,0,0,2.36,2.39,3.42,3.42,0,0,0,3.33-2.3,2.8,2.8,0,0,0,.14-.8Z"/><path class="cls-2" d="M835.92,219.2a1.55,1.55,0,0,1-3.09,0,1.52,1.52,0,0,1,1.56-1.56A1.48,1.48,0,0,1,835.92,219.2Zm-2.78,17.63V223.07h2.5v13.76Z"/><path class="cls-2" d="M839.79,216.65h2.5v20.18h-2.5Z"/><path class="cls-2" d="M845.61,235.35a1.68,1.68,0,0,1,1.71-1.79,1.79,1.79,0,1,1-1.71,1.79Z"/><path class="cls-2" d="M861.9,236.32a9.26,9.26,0,0,1-3.95.79c-4.15,0-6.85-2.81-6.85-7a7,7,0,0,1,7.39-7.3,8.41,8.41,0,0,1,3.47.71l-.57,1.93a5.84,5.84,0,0,0-2.9-.65c-3.16,0-4.86,2.33-4.86,5.2,0,3.18,2,5.14,4.77,5.14a7.15,7.15,0,0,0,3.07-.68Z"/><path class="cls-2" d="M877.1,229.84c0,5.08-3.52,7.3-6.85,7.3-3.72,0-6.59-2.73-6.59-7.08,0-4.6,3-7.3,6.82-7.3S877.1,225.63,877.1,229.84Zm-10.91.14c0,3,1.73,5.28,4.18,5.28s4.17-2.24,4.17-5.34c0-2.33-1.16-5.29-4.12-5.29S866.19,227.36,866.19,230Z"/><path class="cls-2" d="M880.25,226.79c0-1.42,0-2.58-.11-3.72h2.19l.11,2.22h.09a4.73,4.73,0,0,1,4.32-2.53,4.05,4.05,0,0,1,3.89,2.76h.06a5.87,5.87,0,0,1,1.53-1.8,4.75,4.75,0,0,1,3-1c1.81,0,4.51,1.19,4.51,6v8.1h-2.44V229c0-2.64-1-4.24-3-4.24a3.25,3.25,0,0,0-3,2.28,4.2,4.2,0,0,0-.2,1.25v8.5h-2.44v-8.25c0-2.18-1-3.78-2.87-3.78a3.42,3.42,0,0,0-3.1,2.51,3.47,3.47,0,0,0-.2,1.22v8.3h-2.45Z"/><path class="cls-2" d="M372.25,56.16a44.3,44.3,0,0,1,8.16-.68c4.55,0,7.48.83,9.53,2.69a8.19,8.19,0,0,1,2.59,6.25,8.64,8.64,0,0,1-6.21,8.4V73c2.54.88,4.06,3.23,4.84,6.64,1.07,4.6,1.86,7.77,2.54,9h-4.4c-.53-.92-1.27-3.76-2.2-7.86-1-4.55-2.73-6.26-6.59-6.4h-4V88.65h-4.25Zm4.25,15h4.35c4.55,0,7.43-2.49,7.43-6.25,0-4.25-3.08-6.11-7.58-6.16a17.83,17.83,0,0,0-4.2.39Z"/><path class="cls-2" d="M401,77.61c.09,5.82,3.81,8.21,8.11,8.21a15.56,15.56,0,0,0,6.54-1.22l.74,3.08a19.29,19.29,0,0,1-7.87,1.46c-7.28,0-11.63-4.79-11.63-11.92s4.2-12.75,11.09-12.75c7.72,0,9.78,6.79,9.78,11.14a15.79,15.79,0,0,1-.15,2Zm12.6-3.08c.05-2.73-1.12-7-6-7-4.35,0-6.25,4-6.59,7Z"/><path class="cls-2" d="M443.43,65c-.1,1.71-.19,3.61-.19,6.49V85.23c0,5.43-1.08,8.75-3.38,10.8s-5.61,2.84-8.59,2.84a15.25,15.25,0,0,1-7.87-2l1.07-3.27a13.44,13.44,0,0,0,6.94,1.85c4.4,0,7.62-2.29,7.62-8.25V84.6h-.09a8.44,8.44,0,0,1-7.53,4c-5.86,0-10.06-5-10.06-11.53,0-8,5.23-12.56,10.65-12.56a7.88,7.88,0,0,1,7.38,4.1h.09l.2-3.56ZM439,74.34a6.05,6.05,0,0,0-.25-2,6.19,6.19,0,0,0-6-4.54c-4.1,0-7,3.47-7,8.94,0,4.64,2.34,8.5,7,8.5a6.29,6.29,0,0,0,6-4.39,7.39,7.39,0,0,0,.35-2.3Z"/><path class="cls-2" d="M454.86,58.36a2.66,2.66,0,0,1-5.32,0,2.62,2.62,0,0,1,2.68-2.69A2.56,2.56,0,0,1,454.86,58.36Zm-4.79,30.29V65h4.3V88.65Z"/><path class="cls-2" d="M460.92,84.26A11.27,11.27,0,0,0,466.58,86c3.13,0,4.6-1.57,4.6-3.52s-1.22-3.18-4.4-4.35c-4.25-1.51-6.25-3.86-6.25-6.69,0-3.81,3.07-6.94,8.16-6.94a11.82,11.82,0,0,1,5.81,1.46l-1.07,3.13a9.27,9.27,0,0,0-4.84-1.37c-2.54,0-4,1.47-4,3.23,0,2,1.42,2.83,4.5,4,4.1,1.57,6.2,3.62,6.2,7.14,0,4.15-3.22,7.08-8.84,7.08a13.47,13.47,0,0,1-6.65-1.61Z"/><path class="cls-2" d="M486,58.22V65h6.15v3.27H486V81c0,2.93.83,4.59,3.22,4.59a9.49,9.49,0,0,0,2.5-.29l.19,3.23a10.59,10.59,0,0,1-3.81.58,5.93,5.93,0,0,1-4.64-1.81c-1.22-1.27-1.66-3.37-1.66-6.15V68.28h-3.67V65h3.67V59.34Z"/><path class="cls-2" d="M497,72.38c0-2.78,0-5.17-.2-7.37h3.77l.14,4.64h.2a7.08,7.08,0,0,1,6.54-5.18,4.6,4.6,0,0,1,1.23.15v4a6.33,6.33,0,0,0-1.47-.15c-3,0-5.18,2.3-5.77,5.53a13,13,0,0,0-.19,2v12.6H497Z"/><path class="cls-2" d="M525.84,88.65l-.34-3h-.14a8.81,8.81,0,0,1-7.24,3.52c-4.78,0-7.23-3.37-7.23-6.79,0-5.72,5.08-8.84,14.22-8.79v-.49c0-2-.54-5.48-5.37-5.48a11.83,11.83,0,0,0-6.16,1.76l-1-2.83a14.7,14.7,0,0,1,7.77-2.1c7.23,0,9,4.93,9,9.67V83a33.53,33.53,0,0,0,.39,5.66Zm-.63-12.06c-4.69-.1-10,.73-10,5.32A3.81,3.81,0,0,0,519.25,86a5.87,5.87,0,0,0,5.71-4,4.41,4.41,0,0,0,.25-1.37Z"/><path class="cls-2" d="M541.28,58.22V65h6.16v3.27h-6.16V81c0,2.93.83,4.59,3.22,4.59a9.49,9.49,0,0,0,2.5-.29l.19,3.23a10.59,10.59,0,0,1-3.81.58,5.94,5.94,0,0,1-4.64-1.81c-1.22-1.27-1.66-3.37-1.66-6.15V68.28h-3.67V65h3.67V59.34Z"/><path class="cls-2" d="M557.06,58.36a2.67,2.67,0,0,1-5.33,0,2.63,2.63,0,0,1,2.69-2.69A2.56,2.56,0,0,1,557.06,58.36Zm-4.79,30.29V65h4.3V88.65Z"/><path class="cls-2" d="M1120.39,236.1h-12.06v11.18h13.44v3.36h-17.44v-31h16.75V223h-12.75v9.8h12.06Zm-9.2-23.5,4.28,5.33h-3.32l-5.84-5.33Z"/><path class="cls-2" d="M1137,250.64V231.46h-3.13v-3.08H1137v-1.06c0-3.13.69-6,2.58-7.78a7.73,7.73,0,0,1,5.42-2.07,9.18,9.18,0,0,1,3.45.65l-.55,3.12a6.13,6.13,0,0,0-2.57-.5c-3.45,0-4.33,3-4.33,6.44v1.2h5.38v3.08H1141v19.18Z"/><path class="cls-2" d="M1162.35,250.64l-.32-2.8h-.14a8.31,8.31,0,0,1-6.81,3.31c-4.51,0-6.81-3.18-6.81-6.4,0-5.38,4.79-8.32,13.39-8.28V236c0-1.84-.51-5.15-5.06-5.15a11.05,11.05,0,0,0-5.8,1.66l-.92-2.67a13.79,13.79,0,0,1,7.32-2c6.81,0,8.46,4.65,8.46,9.11v8.33a30.89,30.89,0,0,0,.37,5.33Zm-.6-11.36c-4.41-.09-9.43.69-9.43,5a3.58,3.58,0,0,0,3.82,3.87,5.53,5.53,0,0,0,5.38-3.73,4.13,4.13,0,0,0,.23-1.29Z"/><path class="cls-2" d="M1188.07,249.81a14.77,14.77,0,0,1-6.39,1.29c-6.72,0-11.09-4.55-11.09-11.36s4.69-11.82,12-11.82a13.39,13.39,0,0,1,5.61,1.15l-.92,3.12a9.39,9.39,0,0,0-4.69-1.05c-5.11,0-7.87,3.77-7.87,8.41,0,5.16,3.32,8.33,7.73,8.33a11.61,11.61,0,0,0,5-1.1Z"/><path class="cls-2" d="M1197.32,222.12a2.51,2.51,0,0,1-5,0,2.46,2.46,0,0,1,2.53-2.53A2.4,2.4,0,0,1,1197.32,222.12Zm-4.51,28.52V228.38h4v22.26Z"/><path class="cls-2" d="M1203.58,218h4.05v32.66h-4.05Z"/><path class="cls-2" d="M1216.69,240.25c.09,5.47,3.59,7.72,7.64,7.72a14.49,14.49,0,0,0,6.16-1.15l.69,2.9a17.88,17.88,0,0,1-7.4,1.38c-6.86,0-11-4.51-11-11.22s4-12,10.44-12c7.27,0,9.2,6.39,9.2,10.49a14.57,14.57,0,0,1-.14,1.89Zm11.87-2.9c0-2.58-1.06-6.58-5.61-6.58-4.1,0-5.89,3.77-6.21,6.58Z"/><polygon class="cls-2" points="909.02 307.61 922.5 347.35 931.61 338.24 946.61 353.24 954.65 345.2 939.65 330.2 948.76 321.09 909.02 307.61"/></g></g></svg>