<svg xmlns="http://www.w3.org/2000/svg" viewBox="0 0 152.78 152.8"><defs><style>.cls-1{fill:#c2dbff;}.cls-2{fill:#fff;}</style></defs><title>im_profilo_predefinita</title><g id="Livello_2" data-name="Livello 2"><g id="Livello_1-2" data-name="Livello 1"><rect class="cls-1" width="152.78" height="152.78"/><path class="cls-2" d="M137.76,90.93h-.07c-.52-8.62-4.87-16.56-11.91-23.07.88-2.36.83-3.86-.18-4.46a2,2,0,0,0-1.58-.07,8,8,0,0,0-2.25,1.19,61.58,61.58,0,0,0-10.61-6.32c.43-1.69.59-3.31-.21-3.75-.57-.31-1.28.16-3,2.32a77.49,77.49,0,0,0-11.69-3.7c-.14-1.82-.47-4-1.33-4.09-.41,0-.89-.1-2,3.39a88.75,88.75,0,0,0-16.54-1.55c-.5,0-1,0-1.49,0v-3.6h-1v3.62a88,88,0,0,0-15.05,1.69c-.8-3-1-3.68-1.7-3.58s-.92,2.15-1,4.19a75.58,75.58,0,0,0-13.84,4.73c-1.6-1.84-2.59-2.46-3.3-2.1s-.64,2-.32,3.89a57.16,57.16,0,0,0-9.85,6.6c-1.89-1.37-3-1.75-3.73-1.23-.54.4-.85,1.3.32,4.37C19.3,75.64,15.57,83,15.09,90.94H15a7.18,7.18,0,1,0,0,14.36,7.1,7.1,0,0,0,2.62-.5c4.81,10.89,16,19.9,30.49,25.06-10.06,5.33-17.69,13.42-21.24,23h99c-3.55-9.53-11.18-17.62-21.24-23,14.54-5.16,25.68-14.17,30.49-25.06a7.1,7.1,0,0,0,2.62.5,7.18,7.18,0,1,0,0-14.36ZM39.44,56.72c.17,0,.69.31,1.87,1.64-.58.28-1.16.56-1.73.86A7,7,0,0,1,39.44,56.72ZM25.66,65.86S26.07,65.6,28,67c-.64.56-1.25,1.12-1.84,1.7C25.27,66.22,25.64,65.88,25.66,65.86Zm31.68-15c.16.51.34,1.19.53,1.92l-.74.17C57.19,52.12,57.27,51.4,57.34,50.86Zm67,13.44c.51-.15.73-.07.79,0,.39.23.49,1.13-.1,2.87-.77-.68-1.56-1.33-2.38-2A6.19,6.19,0,0,1,124.29,64.3ZM110.5,55.46a6.64,6.64,0,0,1-.28,2.31c-.44-.2-.9-.39-1.35-.58A10.55,10.55,0,0,1,110.5,55.46Zm-15.71-5.2a16.24,16.24,0,0,1,.39,2.58l-1.26-.27A13.8,13.8,0,0,1,94.79,50.26Z"/></g></g></svg>