<svg xmlns="http://www.w3.org/2000/svg" viewBox="0 0 100.04 24"><defs><style>.cls-1{fill:#31e981;}.cls-2{fill:#fff;}</style></defs><title>Risorsa 4</title><g id="Livello_2" data-name="Livello 2"><g id="Livello_1-2" data-name="Livello 1"><polygon class="cls-1" points="0 19.46 9.73 13.91 19.46 19.46 13.91 9.73 19.46 0 9.73 5.55 0 0 5.55 9.73 0 19.46"/><path class="cls-2" d="M27.43,19.55c-5,0-8.25-3.81-8.25-9.7S22.42.36,27.43.36a7.27,7.27,0,0,1,7.4,6.31l0,.3H33.32l0-.24a5.81,5.81,0,0,0-5.86-4.89c-4.12,0-6.67,3.07-6.67,8s2.62,8.22,6.67,8.22c3.14,0,5.49-1.83,5.86-4.57l0-.24h1.55l0,.31C34.4,17.15,31.43,19.55,27.43,19.55Z"/><path class="cls-2" d="M47.4,19.29H45.88v-8.6a3.49,3.49,0,0,0-3.74-3.78,4,4,0,0,0-4.06,4.32v8.06H36.56V.62h1.52v7a5,5,0,0,1,4.27-2.16,4.79,4.79,0,0,1,5,5.08Z"/><path class="cls-2" d="M53.87,19.49c-2.71,0-4.6-1.64-4.6-4,0-1.66.85-3.71,4.88-4l4.24-.3v-.91A3.08,3.08,0,0,0,55,6.91c-2.11,0-3.45,1-3.75,2.88l0,.23H49.7l0-.3C50,7.1,52,5.48,55,5.48s4.92,1.85,4.92,4.71v9.1h-1.5v-2A5.6,5.6,0,0,1,53.87,19.49Zm4.52-7-4.06.29c-1.61.13-3.53.69-3.53,2.68,0,1.52,1.32,2.58,3.2,2.58a4.17,4.17,0,0,0,4.39-3.91Z"/><path class="cls-2" d="M73,19.29H71.42V10.68a3.48,3.48,0,0,0-3.74-3.77c-2.38,0-4,1.73-4,4.31v8.07H62.17V5.68h1.47v2A5,5,0,0,1,67.9,5.48a4.74,4.74,0,0,1,5,5.07Z"/><path class="cls-2" d="M80.74,24c-2.79,0-5-1.46-5.44-3.55l-.06-.33h1.54l.06.19c.44,1.39,2,2.28,4,2.28,2.52,0,4.15-1.45,4.15-3.69V16.83a5.23,5.23,0,0,1-4.59,2.62c-3.47,0-5.79-2.8-5.79-7s2.33-7,5.8-7A5.32,5.32,0,0,1,85,8.17V5.68h1.47V18.86C86.46,22,84.21,24,80.74,24ZM80.47,6.91c-2.62,0-4.38,2.24-4.38,5.58S77.85,18,80.47,18s4.47-2.28,4.47-5.55S83.1,6.91,80.47,6.91Z"/><path class="cls-2" d="M94.26,19.49c-3.76,0-6.1-2.68-6.1-7s2.41-7,6-7S100,8.14,100,12.1v.83H89.7c.08,3.18,1.82,5.14,4.57,5.14,2.13,0,3.69-1.06,4.08-2.77l.05-.22h1.53l-.06.33C99.37,17.89,97.17,19.49,94.26,19.49Zm-4.53-7.93h8.74c-.12-2.8-1.83-4.66-4.32-4.66S90,8.72,89.73,11.56Z"/></g></g></svg>