<svg xmlns="http://www.w3.org/2000/svg" viewBox="0 0 1534.86 933.12"><defs><style>.cls-1{fill:#d8e4ff;}.cls-2{fill:#31e981;}.cls-3{fill:#00120b;}</style></defs><title>sfondo</title><g id="Livello_2" data-name="Livello 2"><g id="Livello_1-2" data-name="Livello 1"><rect class="cls-1" width="1534.86" height="933.12"/><path class="cls-2" d="M1534.86,159.72V0H1386.28c-29.27,71.3-65.8,153.74-146.82,177.55-44.28,13-110.32,11-154.39-23.39-28.46-22.21-30.62-44.57-65.5-95.91,0,0-15.62-23-47.64-58.25H239.84c-76.26,118.49-119.65,181.27-170,215A333.13,333.13,0,0,1,0,250.65v159.5a291.35,291.35,0,0,0,53.47,22.38C181.78,470.92,262.24,313,355.23,350.66c52.37,21.19,86.3,89.83,84.21,145C436,586.84,335.63,605.5,320.14,713.24,310.47,780.51,340.58,836,355.23,863a340.21,340.21,0,0,0,51.35,70.17h355.2C850.86,853.37,931.3,751,1043,771.72c6.41,1.19,96.49,19.19,142.7,91.23,17.63,27.48,20.42,49.67,23.2,70.17h326v-334c-40-54.92-80.35-78.8-103.59-164.25-10-36.6-33-121.3,7-194.16C1465.11,191.87,1503.57,178.71,1534.86,159.72ZM540,823.18c-20.53-9.41-32.11-44.79-16.38-67.84,9.42-13.79,26.56-20.18,42.11-18.71,21.66,2,40.26,19.3,42.11,37.43C611,804.41,566.83,835.46,540,823.18ZM806.7,196.27c-5.2,22.47-41.16,38-70.18,30.41-16.39-4.27-39.48-18.2-42.1-42.11-2-18.62,8.61-40.75,21.05-42.11,18.88-2.06,31.5,44.82,51.46,42.11,12.81-1.74,16-22.16,25.74-21C801.37,164.51,810,182.21,806.7,196.27Z"/><path class="cls-2" d="M268.68,416.15c-23-5.43-37.14,27.2-77.2,56.15C123.41,521.48,58.24,503.82,0,504.42v428.7H279.38C218,855.14,92.5,756.22,123.65,687.5c26.53-58.53,137.67-31,177.78-109.94C332.5,516.38,304.05,424.51,268.68,416.15Z"/><path class="cls-3" d="M233.59,491c-33.56-6.49-59,26.14-88.89,46.78C92,574.19,42.42,561.61,0,558.06V933.12H230.47C157.73,824.9,98.62,817.09,86.22,757.68,72.09,690,132.71,623.06,140,615c54.9-60.63,131.11-67,128.66-95.91C267.49,505.09,248.62,493.91,233.59,491Z"/><path class="cls-2" d="M1120.16,109.72c13.14,9.58,44.91,32.77,86.55,30.41,73-4.15,137.24-84.52,136-140.13H1045.62C1054,38.61,1083.68,83.09,1120.16,109.72Z"/><path class="cls-3" d="M1129.51,70c7,8,24.92,26.07,53.81,32.75,44.18,10.21,97.84-9.92,117-51.47,2.59-5.63,13-28.32,5.58-51.23H1100.61C1101.52,23.9,1113,51,1129.51,70Z"/><path class="cls-2" d="M0,0V206.92C20,192.16,40.39,173,60.49,154.16,79.77,136.05,151.44,68.77,182.44,0Z"/><path class="cls-3" d="M0,0V169.42c27.72-21.11,56.28-60.51,86.22-101.81,13-18,30.76-42.44,45.39-67.61Z"/><path class="cls-2" d="M1534.86,202.48c-25.52,20.78-54.28,75-63.82,127.12-17.67,96.7,27.38,204.63,63.82,225.64Z"/><path class="cls-3" d="M1534.86,244.77l-.66.62c-44.77,41.94-40,112.5-37.43,145,3.66,45.24,18.54,111.91,38.09,124.3Z"/><path class="cls-2" d="M821.79,933.12h336.77c-8.07-20.77-20.29-40.49-36.06-56.14-58.8-58.34-144.44-37.91-166.09-32.75C903.38,856.88,841.07,894,821.79,933.12Z"/><path class="cls-3" d="M984.48,874.64c-46,5-107.52,28.33-127.09,58.48h258.23a119.78,119.78,0,0,0-30.55-37.42C1050.1,867.56,1007.39,872.17,984.48,874.64Z"/><path class="cls-3" d="M1496.77,151.82c15.67-15,28.19-24.63,38.09-32.94V0H1433.37c-6.42,13.33-13.93,28.81-23.15,46.56-64.33,123.82-96.49,185.73-149.71,205.85-81.94,31-197.54-34.28-252.64-112.28-37.53-53.14-19.34-73-56.14-128.66Q947.82,5.54,943.67,0H287c-64.79,103.46-47.39,113.47-90.82,154.16-59.77,56-175.83,114.9-196.16,125V383.82c24.11,12.78,53.37,20.87,81.54,18.3,59.75-5.45,63.8-54.23,138-84.21,56.07-22.66,151.07-34.12,208.19,18.71,62.8,58.09,44.75,161.46,42.1,175.44-18.6,98.29-87.36,103.37-105.26,189.48-16.34,78.57,19.48,177.39,86.77,231.58h266C826.43,874.52,829.9,782,942.38,746c79.72-25.55,185.2-13.46,238.6,44.45,44.75,48.54,17.47,90.83,60.81,142.69h293.07V669.49C1491,610.65,1431,607,1393.85,521.42c-37.11-85.38-16-170.71-9.36-194.16C1409.33,240.25,1473.79,173.76,1496.77,151.82ZM626.58,811.48c-11.71,23.41-40.27,50.3-74.85,44.45s-54.19-40.75-56.15-70.18c-2.3-34.71,19.63-68.28,51.47-79.53,4.32-1.53,33.33-11.28,58.48,4.68C636.86,730.77,643.13,778.43,626.58,811.48Zm224.57-650.3c-18.27,52.73-29.87,86.18-60.82,98.25-43.84,17.08-113.45-13.84-124-65.5-10.27-50.37,39.06-103.54,58.48-98.25,16.33,4.45,6.59,48.92,28.07,58.48,32.22,14.34,90.15-69.73,107.6-58.48C871.41,102.7,858,141.42,851.15,161.18Z"/></g></g></svg>